<?xml version="1.0" encoding="UTF-8"?>
<svg id="Layer_1" data-name="Layer 1" xmlns="http://www.w3.org/2000/svg" viewBox="0 0 1472.81 1058.4">
  <defs>
    <style>
      .cls-1 {
        fill: #bc9b3d;
      }
    </style>
  </defs>
  <path class="cls-1" d="M621.35,1020.58c-3.19-2.75-6.9-2.76-10.52-2.27-1.69,.23-4.11,1.89-4.55,3.39-1.58,5.37-6.48,6.73-10.39,8.35-10.5,4.34-26.47,.13-34.94-8.29-2.18-2.17-4.19-4.53-6.55-6.47-4.99-4.11-6.9-10-8.36-15.72-1-3.92-2.34-7.96-1.93-12.37,.43-4.59-1.85-8.33-5.81-11.27-3.16-2.35-5.67-5.39-10.11-5.46-1.25-.02-2.73-1.08-3.69-2.07-6.12-6.3-10.44-4.47-19.95-.38-1.69,3.09-4.66,2.36-7.39,2.58-6.03,.49-11.76-.25-17.04-3.44-.81-.49-1.71-1.12-2.58-1.14-3.21-.09-6.45,.2-9.35-1.59-4.3,1.99-9.76,1.15-13.14,5.41-.63,.8-1.44,1.46-2.42,2.44-3-.2-6.82,.57-9.36-.89-3.02-1.73-6.83,1.06-9.06-2.36-6.72,.25-12.57-3.05-18.87-4.48-1.81-.41-3.08-1.08-4.58-2.04-3.19-2.05-6.31-4.51-10.53-4.26-2.04,.12-3.19-1.23-3.53-3.15-.42-2.39,.82-4.2,2.99-4.37,2.3-.18,3.78-.89,4.88-3.39-1.82-2.98-4.75-4.42-8.34-4.37-6.46,.09-12.63-.85-18.27-4.17-2.13-1.26-5.19,.74-6.85-2.01-3.73,.51-5.19-2.17-7.34-5.05,4.06-2.2,7.75-4.21,12.32-6.69-2.26-.89-3.73-1.86-5.28-2.01-6.95-.66-13.93-1-20.87-1.68-1.31-.13-3.02-1-3.64-2.06-.87-1.47-.71-3.31,1.02-4.66,1.34-1.04,2.44-2.4,4.26-4.24-2.57-1.13-4.96-3.12-6.19-2.56-4.94,2.25-11.68,.74-14.88,7.43,1.41,2.34,2.36,5.1,5.87,7.01,3.75,2.02,6.84,5.77,6.51,10.94-.13,2.07,1.46,2.73,3.06,3.67,4.06,2.37,3.85,3.77,1.05,7.43-4.12,5.38-10.12,6.38-16.01,7.84-5.81,1.43-9.77-2.57-13.92-5.27-3.11-2.02-5.93-5.01-7.89-8.17-2.6-4.19-4.64-8.84-6.17-13.53-1.52-4.65,.53-9.51,1.9-13.74,1.26-3.91,2.77-9.09,8.27-10.23,6.02-5.89,14.14-6.7,21.68-8.88,3.52-1.02,7.13-2.25,10.87-1.54,5.67,1.08,11.29,2.41,16.94,3.62,4.62,.99,9.04,3.6,14.41,1.93-2.95-6.07-5.82-11.78-8.53-17.57-2-4.28-3.09-9.21-5.9-12.83-2.75-3.55-2.76-7.63-4.33-11.33-.93-2.17-1.31-4.64-1.55-7.01-.26-2.53,.14-5.13-.11-7.66-.3-3.13-1.19-6.22-1.43-9.35-.26-3.31,.25-6.69-.15-9.96-.4-3.3-.74-7.01-2.47-9.66-3.47-5.33-6.38-11.39-11.92-14.93-1.56-1-2.41-1.97-3.02-3.36-1.95-4.45-6.05-7.4-7.92-12.08-.82-2.05-2.01-4.28-2.94-6.45-2.44-5.7-6.87-10.31-8.82-16.31-.53-1.62-2.35-2.68-4.4-2.13-1.14,.31-2.4,.53-3.35,1.17-6.95,4.68-14.81,3.59-22.41,3.28-2.94-.12-5.91-1.71-8.7-2.98-2.6-1.18-4.85-3.15-7.48-4.2-5.96-2.38-10.49-6.12-13.44-11.88-.67-1.3-2.19-2.14-3.17-3.31-.59-.71-1.2-1.64-1.28-2.51-.48-5.68-2.25-11.21-1.64-17.02,.32-3.04,.02-6.14,.07-9.2,.06-3.67,2.12-8.42,4.77-11.07,3.43-3.45,6.93-6.84,10.31-10.33,2.65-2.73,2.7-4.07-.21-6.82-2.88-2.72-6.06-5.11-9.11-7.64-8.31-6.9-13.69-16.11-19.61-24.89-6.98-10.35-12.39-21.65-19.91-31.7-8.53-11.41-17.24-18.02-31.44-22.05-8.9-2.53-10.3-2.27-17.93-.03-1.75,.51-2.88,1.67-4.63,4.75,4.51,6.66,11.56,10.67,17.99,14.97,5.84,3.91,9.04,9.4,12.96,14.62,1.18,1.57,1.56,2.99,1.48,4.79-.09,2.3,0,4.6-.03,6.91-.04,4.32-1.56,6.88-5.35,7.54-2.98,.52-6.79,1.25-9.04-.1-3.86-2.32-9.28-2.66-11.34-7.74-.91-2.25-3.67-2.59-5.13-4.62-3.18-4.42-6.93-8.44-10.54-12.54-.54-.62-1.59-.79-3.49-1.68,.93,3.5,.22,5.85,1.11,8.74,2.08,6.73,.78,13.58-2.37,19.92-1.08,2.18-7.71,3.16-9.6,1.58-1.49-1.24-2.92-2.55-5.09-4.44-.69,3.77-.81,6.21,.43,9.23,2.51,6.14,5.34,12.12,8.12,18.14,.69,1.5,1.29,3.11,1.51,4.73,.39,2.89,.48,5.72,1.25,8.66,.74,2.82-1.31,6.39-2.2,9.61-.25,.9-.71,1.75-1.12,2.74h-8.39c-3.64-4.23-7.96-8.76-11.64-13.75-1.91-2.59-3.57-5.96-3.79-9.08-.38-5.55-1.34-11.36,2.74-16.48,1.33-1.67,1.91-4.29,1.78-6.94-.32-6.35-.1-12.73-.1-19.07-4.28-1.46-7.66-.12-11.2,2.04-7.63,4.66-16.29,3.87-24.65,3.29-2.53-.18-4.87-3.03-7.2-4.59,0-2.21,.15-4-.04-5.75-.3-2.72,1.32-4.71,2.7-6.55,3.34-4.46,12.72-10.09,18.52-12.66,3.79-1.68,7.93-1.69,11.03-.61,4.31,1.5,8.38,.84,12.54,1.18,2.04,.17,4.1,.03,6.15,.03q4.27-3.75,4.34-8.32c-4.46-2.45-8.86-4.82-13.19-7.3-.84-.48-1.98-1.42-2-2.18-.13-4.91-.95-10.07,3.28-13.95,3.7-3.4,7.49-4.64,12.63-2.36,6.34,2.82,12.18,6.49,16.96,12.53,4.67,.11,9.47,.94,13.49-2.52,.33-.29,.88-.39,1.34-.45,4.37-.57,8.75-1.11,13.14-1.66,1.12-2.11,.87-3.88-1.04-5.32-4.24-3.2-7.54-7.82-13.31-8.68-5.68-6.19-14.65-5.67-21.09-10.31-9.79-1.95-19.59-2.82-29.38-.05-.65,.18-1.15,1.4-1.7,1.38-7.03-.23-13.89,3.05-20.86,1.48-4.57-1.03-9.38-1.71-13.34-4.92-2.76-2.25-6.08-3.81-9.14-5.7-1.02-.63-2.14-1.18-3-1.99-2.78-2.62-2.86-5.88,.08-8.34,4.83-4.05,10.72-6.41,16.67-7.85,3.46-.84,7.32-1.76,10.83-1.58,8.69,.44,17.42,1.58,25.54,4.98,3.93,1.65,8.12,3.61,11.03,6.57,5.02,5.11,11.34,7.48,17.67,9.46,8.8,2.76,16.34,7.66,24.24,12.04,6.3,3.5,12.23,7.54,18.4,11.24,1.55,.93,3.41,1.34,5.15,2,2.42-7.53-1.06-13.58-2.7-19.81-1.01-3.84-2.98-7.46-4.81-11.04-4.03-7.89-7.52-15.9-8.77-24.8-.46-3.24-2.06-6.3-2.96-9.49-.93-3.29-1.58-6.58-1.69-10.1-.25-7.98-1.15-15.93-1.86-24.84-4-3.48-8.67-7.6-13.41-11.64-4.49-3.83-5.72-9.43-7.48-14.55-1.2-3.48-.28-7.68,3.08-10.03,2.91-2.03,6.09-3.86,10.07-.95,1.26,.92,3.11,.59,4.17,2.82,.79,1.67,3.41,2.47,5.76,4.02,1-1.36,2.48-2.51,2.77-3.91,1.12-5.44,1.46-10.99,3.03-16.4,.82-2.83,.31-6.11,.11-9.17-.34-5.01,2.11-9.59,2.38-14.3,.37-6.38,4.95-12.71,.73-19.24,.53-4.51-.58-8.83-1.51-13.19-1.5-7.03-2.58-13.88-7.15-20.17-3.38-4.65-5.35-10.41-10.1-14.13-3.42-2.69-6.98-5.26-11.7-5.15-.98,.02-1.99-.08-2.93-.33q-6.78-1.83-12.9,2.73c.59,8.52,1.94,17.04,5.41,25.16,.46,1.09,.75,2.29,.86,3.47,.15,1.52-.15,3.09,.07,4.6,1.36,9.35-2.27,17.84-4.74,26.47-1.78,6.21-11.85,15.87-17.63,17.69-1.4,.44-3.05,.07-5.04,.07-2.28-2.92-4.95-5.89-7.1-9.19-2.52-3.87-4.5-7.96-4.04-12.94,.38-4.06,.12-8.18,.07-12.27-.16-11.62,3.21-22.44,8.24-32.66,1.72-3.5,2.76-6.72,2.47-10.67-3.67-2.11-6.15,.76-7.19,3.1-2.57,5.77-6.91,10.37-9.66,15.96-.42,.85-.74,1.87-1.42,2.46-4.55,3.94-7.68,8.95-10.84,13.96-1.03,1.62-2.49,3.11-3.01,4.88-.94,3.21-1.26,6.23-4.77,8.35-4.29,2.59-8.46,4.92-13.55,4.38-2.58-.27-5.29-.89-7.53-2.11-1.12-.61-1.46-2.88-1.87-4.47-.73-2.79,.27-5.48,1.59-7.75,2.19-3.75,4.97-7.15,7.41-10.77,1.32-1.96,2.44-4.06,4.35-7.27-2.26,.57-3.52,.53-4.22,1.13-4.17,3.55-7.1,8.07-9.88,12.76-3.56,5.99-7.5,11.76-11.37,17.56-2.14,3.2-3.76,6.54-4.92,10.26-1.61,5.17-3.68,10.26-6.13,15.1-2.47,4.9-5.65,9.44-8.5,14.15-3.14,5.18-8.46,8.41-12,13.28-.91,1.25-3.42,1.58-5.26,1.86-2,.31-4.09,.12-6.14,.06-3.79-.12-4.83-1.1-4.89-4.88-.08-5.37-.19-10.75,.05-16.12,.13-2.88,.18-6.22,1.63-8.47,3.01-4.64,3.62-10.24,7.54-14.67,5.07-5.73,10.76-10.2,17.31-13.84,4.41-2.45,8.46-4.89,11.5-9.5,2.45-3.73,5.67-7.65,10.46-9.53,1.75-.68,2.86-2.87,4.42-4.19,2.05-1.74,3.6-3.86,6.32-5.1,3-1.36,5.02-4.33,3.45-8.48-4.06-.62-8.36-1.53-12.71-1.86-4.33-.33-8.71-.03-13.06-.08-8.69-.09-19.14-7.92-21.51-16.07-1.14-3.94,1.44-10.97,5.39-13.02,5.45-2.83,11.16-5.19,16.81-7.63,.86-.37,2.01-.11,3.03-.11,7.17,0,14.35,0,21.52,0,.77,0,1.86-.33,2.25,.05,2.67,2.61,6.25,.75,9.19,2.02,2.91,1.26,5.77,2.22,8.04,4.84,3.43,3.94,7.06,7.81,11.77,10.4,2.32,1.27,4.51,3.45,7.33,2.57,3.6-1.13,7.53-1.64,10.49-4.33,1.57-1.42,1.32-2.97,.35-4.71-1.73-3.11-3.42-6.25-4.87-9.5-.96-2.15-2.26-4.61-1.94-6.72,.36-2.42,2-4.89,3.66-6.84,3.52-4.15,7.7-7.6,12.78-9.84,4.65-2.05,14.75-.81,18.15,2.43,.44,.42,.23,1.46,.61,2.02,3.25,4.78,4.86,10,4.53,15.79-.04,.77,.09,1.55-.02,2.3-1.01,6.63,3.58,11.51,10.43,10.22,2.67-.5,5.09,.46,6.99,1.68,6.05,3.88,13.43,5.36,18.75,10.54,.52,.51,1.97,.07,3.48,.07,.89-5.33,.38-10.61-1.2-15.85-1.72-5.71-2.27-11.74-4.63-17.27-3.3-7.73-6.74-15.39-12.57-21.68-1.47-1.59-2.81-3.4-3.79-5.33-4.43-8.69-12.28-12.12-21.22-13.36-2.69-.37-5.21-1.36-7.81-1.57-2.5-.2-4.71-.91-7.07-1.56-9.74-2.67-17.22-8.43-21.83-17.08-2.02-3.79-4.68-7.86-4.23-12.87,.22-2.53-.13-5.79-1.58-7.67-3.56-4.6-.58-8.68,.61-12.52,1.16-3.74,5.87-4.72,9.18-5.04,12.92-1.27,25.23,1.7,36.72,7.58,4.27,2.19,8.44,5,11.84,8.36,3.21,3.17,5.85,7.19,7.81,11.28,2.75,5.75,5.14,11.77,6.23,18.13,.62,3.6,1.71,7.08,1.8,10.87,.06,2.61,1.83,5.38,3.38,7.71,3.44,5.19,7.81,9.78,8.82,16.35,.23,1.49,1.96,2.74,2.95,4.12,3.74,5.2,3.56,11.78,6.09,17.44,2.3,5.15,2.43,10.85,3.5,16.28,1.31,6.63,1.59,13.87,5.73,19.83,.45,.65,.06,1.87,.06,3.09,4.13,.04,6.03-2.44,7.32-5.1,3.62-7.45,6.88-15.06,10.42-22.55,1.22-2.58,2.33-5.62,4.42-7.29,4.45-3.55,6.66-8.62,9.44-13.12,2.34-3.79,5.89-6.36,8.2-10.12,1.04-1.7,2.52-3.78,4.37-5.29,1.63-1.33,2.56-3.5,3.89-5.23,4.59-6.01,9.45-11.81,13.69-18.1,1.63-2.42,3.29-4.67,4.42-7.41,1.79-4.37,3.99-8.59,6.09-12.83,2-4.04,4.21-7.97,6.11-12.06,2.39-5.16,2.2-10.59,.8-15.93-1.52-5.82-2.83-11.67-4.15-17.52-1.93-8.6-1.39-17.09-.99-25.52,.37-7.8,1.09-16.02,5.98-22.75,2.14-2.94,4.88-5.51,7.64-7.91,2.97-2.58,6.42-2.09,9.4,0,2.77,1.95,5.74,3.69,6.1,7.92,.25,2.97,2.08,5.77,2.84,8.74,.35,1.36-.1,2.95-.36,4.41-.25,1.4-.93,2.75-1.06,4.15-.59,6.18-.4,12.51-1.74,18.51-1.66,7.46-2.33,15.13-5.21,22.37-2.27,5.72-2.42,12.12-5.25,17.8-.88,1.77-.14,4.35-.14,7.37,2.76-1.45,5.02-2.04,6.44-3.47,9.74-9.82,21.57-16.28,34-21.88,.88-.4,1.55-1.25,2.24-1.82,1.18-4.12,.5-7.54-3.1-10.06-.41-.29-.95-.66-1.06-1.08-1.65-6.3-5.91-11.32-8.46-17.22-1.65-3.83-2.43-7.34-2.39-11.3,.03-3.33-.09-6.66,.04-9.98,.1-2.42,3.3-6.3,5.37-6.83,6.77-1.75,14.58,2.01,17.81,8.61,.52,1.06,1.24,2.15,1.33,3.27,.61,7.28,3.91,13.73,6.26,20.46,.43,1.25,1.64,2.23,2.78,3.71,3.93-3.02,4.81-7.09,6.39-10.73,3.97-9.11,6.47-18.88,12.27-27.17,1.02-1.46,2.29-2.11,3.9-2.91,5.55-2.8,12.05-4.16,16-9.67,1.62-2.26,4.34-3.35,5.99-5.81,1.67-2.49,3.12-4.74,3.49-7.84,.18-1.49,1.76-2.79,3.99-2.68,3.15,.15,5.85,1.16,7.74,3.56,2.68,3.42,5,7.02,5.08,11.72,.15,8.53-2,16.25-6.97,23.25-1.81,2.55-3.3,5.45-1.63,9.4,3.25-.34,6.96,0,10.02-1.24,3.31-1.35,6.62-.17,10.09-1.61,3.93-1.64,9.05-.27,13.63-.53,8.74-.49,16.72,2.88,24.87,5.01,3.53,.92,6.48,4.09,9.64,6.32,2.2,1.55,4.46,3.07,6.41,4.9,5.24,4.93,10.82,4.91,17.15,1.38-.67-3.43-1.37-6.98-2.1-10.68,2.26-1.87,4.38-3.61,6.49-5.36,4.46-3.68,9.24-2.61,13.86-.64,4.69,2,9.51,2.51,14.47,2.1,1.34-.11,2.61-1.09,4.4-1.88-2.13-2.65-3.94-4.87-5.7-7.13-1.94-2.49-.89-5.87,2.24-6.17,3.46-.33,6.47-1.62,9.65-2.73,1.64-.58,3.82-.07,5.64,.4,3.5,.9,6.78,2.8,10.59,2.24,.97-.14,2.03-.07,2.88-.46,2.16-1,4.25-3.5,6.54-2.46,3.9,1.76,8.57,1.23,11.95,4.71,2.1,2.16,5.21,3.36,7.86,4.98,2.34,1.43,4.42,1.53,6.83-.28,3.79-2.83,11.05-2.87,14.45,.19,4.64,4.17,10.65,7.1,12.78,13.73,.49,1.52,2.49,2.5,3.43,3.96,.74,1.15,.94,2.65,1.56,4.53-3.68,.42-6.49-.1-9.69-1.05-5.28-1.57-10.75-2.74-16.29-3.63-4.71-.75-9.34-.85-14.02-1.21-9.76-.76-18.84,1.85-27.88,5.09-7.58,2.72-14.44,7.29-22.51,8.75-2.7,3.25-6.54,3.8-10.35,4.75-1.64,.41-2.88,2.4-4.17,3.55,1.46,2.94,4.04,2.94,6.12,2.35,5.75-1.64,11.89-2.21,17.25-4.69,4.83-2.24,10.01-2.96,14.9-4.86,4.67-1.82,10.08-1.85,14.98-2.95,5.02-1.13,10.09-.11,14.75-1.41,5.48-1.52,10.91-.83,16.32-1.42,6.61-.73,12.97,.95,19.32,1.88,4.74,.7,9.5,3.11,13.04,6.91,.22,.23-.08,.94-.2,2.09-3.75-.69-7.33,.22-11.47-1.23-3.81-1.33-8.69,1.08-11.78,4.13-3.75,3.69-9.27,4.73-12.52,9.04-.48,.63-2.3,.25-3.26,.32-.94-3.36-1.77-6.34-2.6-9.3-5.5,.88-8.15,4.48-10.42,8.66-2.15,3.97-2.39,8.84-5.98,12.17-.52,.49-.13,2.51,.43,3.46,.75,1.28,2.09,2.22,3.43,3.56,3.52-.2,7.83,.66,10.91-.9,3.56-1.8,7.76,1.27,10.65-2.29,.31-.38,1.48-.13,2.24-.04,9.61,1.11,19.06-1.16,28.55-1.86,6.44-.48,12.97-.53,19.35-1.37,8.03-1.06,16.17-1.8,24.05-3.24,9.27-1.7,18.61-4.11,27.46-7.75,5.37-2.21,10.86-3.56,16.64-4.56,4.5-.77,8.34-.4,12.65,.16,4.38,.57,8.6,.89,12.83,2.55,4.64,1.82,9.67,2.68,14.58,3.76,5.65,1.25,11.5,1.85,16.95,3.66,2,.67,3.84,.58,5.72,.99,1.86,.41,3.68,1.44,5.52,1.43,4.49-.02,8.59,1.36,12.73,2.76,.68,.23,1.43,.41,2.14,.38,8.97-.4,17.41,3.39,26.4,3.3,2.42-.02,5.05,1.51,7.82,1.34,4.44-.26,5.78-2.23,3.89-6.23-2.32-4.92-4.8-9.78-7.38-15.01h-5.1c-.1,.36-.45,1.04-.45,1.72,0,2.32,.28,4.7-3.65,5.84-2.08-1.62-4.8-3.62-7.36-5.8-1.75-1.49-3.11-3.47-4.95-4.81-3.72-2.7-7.53-5.26-12.56-4.95-3.76,.23-7.54,.05-12.34,.05,1.34-2.02,1.84-3.69,2.89-4.19,5.42-2.57,10.95-4.99,17.13-5.01,8.2-.03,16.4,.18,24.59-.08,5.03-.16,9.84,1,14.75,1.53,5.08,.56,9.95,2.12,14.9,2.88,4.87,.74,9.15,2.89,13.87,3.84,5.13,1.03,10.14,2.69,15.19,4.11,1.99,.56,3.96,1.23,6.14,1.92,1.15-3.39,.48-5.39-2.37-6.54-4.61-1.86-9.27-3.56-13.65-6.04-4.1-2.32-8.57-4.03-12.97-5.75-4.64-1.8-9.37-3.39-14.12-4.87-1.4-.43-3.01-.21-4.52-.22-5.38-.02-10.77-.21-16.14,.07-2.88,.15-5.69-.68-8.77,1.12-2.29,1.34-6.84-.85-8.83,.62-2.68,1.98-6.12-.19-8.31,2.68-.56,.73-2.9,.11-4.77,.11-.03-2.07-1.04-3.28,2.02-5.12,4.69-2.82,8.4-7.45,12.06-11.71,2.55-2.97,6.18-3.84,9.23-5.76,1.68-1.06,4.31-1.19,6.16,.87,3.54,3.94,7.41,1.49,10.88,.1,2.41-.97,4.2-3.38,6.53-4.67,3.09-1.71,6.36-3.24,9.72-4.31,1.76-.56,3.64-.04,5.57,1.28,3.88,2.65,8.46,2.49,12.3-.2,5.05-3.53,9.51-3.32,14.82-.3,2.71,1.55,5.93,1.99,7.13,4.77-2.88,2.87-5.55,5.54-7.88,7.87,.62,3.66,1.99,4.92,4.72,4.91,5.43-.02,10.59,0,15.73-2.93,6.5-3.7,15.03-2.36,19.52,3.28,2.46,3.09,2.67,5.4-.06,8.43-.98,1.08-2.05,2.08-3.07,3.09,5.26,5.71,6.89,6.05,14.04,2.81,2.38-1.08,4.57-2.55,6.9-3.76,2.65-1.37,5.46-2,8.5-1.78,3.79,.29,5.6,2.17,4.67,5.82-.51,2.01-1.77,3.9-2.98,5.65-1.33,1.93-2.87,3.75-4.53,5.42-1.57,1.57-3.37,2.91-5.13,4.28-1.92,1.5-3.79,3.14-5.91,4.29-2.69,1.47-5.57,3.39-8.44,3.53-3.8,.18-5.03,2.59-7.45,4.88,1.95,1.95,3.29,4.04,5.2,5,2.5,1.26,4.59,4.46,8.5,1.5,2.25-1.7,6.02-.59,9.19-1.74,4.45-1.62,7.63-3.92,9.58-8.13,1.4-3.01,3.31-5.85,4.22-8.99,.89-3.07,5.05-4.47,3.99-8.34,2.15-2.18,4.3-4.37,6.46-6.54,6.93-6.93,12.66-9.91,23.18-14.51,3.52-1.54,7.13-2.68,10.7-3.83,3.66-1.18,7.6-1.69,11.45-2,4.07-.33,8.2-.25,12.29,0,2.37,.14,4.7,1,7.06,1.46,2.13,.41,4.18-.12,6.48,1.15,2.1,1.16,5.36,.25,8.53,.25-.09-1.97,.45-4.07-.34-5.33-3.74-6-4.7-12.92-6.94-19.41-1.63-4.73,.04-9.15,1.85-13.43,.74-1.74,2.04-3.27,3.22-4.8,1.97-2.57,5.86-3.94,8.73-2.86,1.04,.39,2.3,1.52,2.55,2.53,2.2,8.94,9.99,13.42,15.58,19.63,.65,.72,2.29,.56,3.47,.78,4.98,.93,8.99,3.03,11.88,7.57,2.88,4.52,4.1,9.58,6.05,14.41,2.5,6.16,4.45,12.5,6.32,18.88,5.94,.59,5.84,.54,8.44-4.13,2.71-4.86,3.75-10.29,5.09-15.53,2.52-9.84,6.4-13.5,16.11-13.52,1.02,0,2.05,0,3.17,0,1.69,1.81,3.43,3.67,5.45,5.83-.3,4.66,.17,9.76-1.33,15-1.39,4.85-3.21,9.6-5.44,13.86-2.06,3.94-4.11,8.22-7.13,11.64-2.51,2.84-3.59,5.85-2.8,10.01,15.32,6.02,28.26,16.53,42,27.41,.38-1.76,.98-2.87,.77-3.82-1.22-5.63-2.49-11.25-3.76-16.87-1.2-5.31-3.16-10.44-4.81-15.65-.14-.45-.53-.85-.57-1.29-.54-5.93-1.59-11.87-1.38-17.78,.16-4.6-1.61-8.72-1.77-13.18-.35-9.93,2.34-17.69,9.96-24.3,3.25-.41,6.71-.47,9.23,1.57,3.45,2.78,7.06,5.84,8.45,10.25,1.9,6.04,3.22,12.13,3.36,18.66,.19,8.6-.75,17.1-2.07,25.41-.88,5.52-.3,11.73-4.01,16.68,.13,6.6-1.65,13.22,2.05,19.67,3.64,6.34,6.88,13,8.47,20.28,.25,1.13,.76,2.37,1.54,3.17,6.19,6.38,9.42,14.99,16.14,21.01,3.63,3.25,4.61,8.56,8.39,11.87,.87,.76,1.22,2.09,2.02,2.97,1.73,1.88,4.31,3.32,5.29,5.51,4.15,9.29,11.55,16.51,15.8,25.7,3.28,7.09,7.62,13.67,9.91,21.24,1.14,3.78,3.56,5.89,8.26,4.39,1.5-5.87,3.8-11.85,4.99-18.25,1.56-8.42,2.55-17.03,7-24.73,1.63-2.82,2.67-6.14,3.25-9.36,.75-4.18,5.54-6.36,5.02-11,3.5-2.33,3-7.17,6.13-9.77,.3-.25,.1-1.12,.39-1.33,4.52-3.19,4.61-8.29,5.83-12.97,2.09-8.04,3.3-16.22,7.5-23.78,8.65-15.59,12.54-17.38,26.56-24.45,2.66-1.34,5.72-2.41,9.07-2.32,2.59,.07,5.19-1.12,7.82-1.36,2.79-.26,5.63-.06,8.45-.06h9.79c.83,1.01,2.36,2.7,3.68,4.54,1.91,2.66,3.23,5.76,2.33,8.95-1.76,6.18-2.97,12.5-5.05,18.62-2.42,7.12-6.99,12.65-12.75,16.82-4.11,2.98-8.63,5.85-14,6.98-1.62,.34-3.3,.63-4.96,.89-7.35,1.15-14.81,1.94-21.27,6.15-1.43,.93-3.05,1.79-4.06,3.09-2.36,3.05-4.39,6.35-6.59,9.53-2.34,3.39-4.53,6.9-7.13,10.07-1.49,1.81-2.93,3.31-2.58,5.91,.1,.79-.65,1.76-1.17,2.54-3.68,5.56-4.75,9.66-6.6,15.71-1.75,5.73-2.13,11.76-4.32,17.38-.47,1.21,.73,3.07,1.31,5.15,3.99-2.04,7.27-3.77,10.59-5.41,3.42-1.69,7.59-1.96,10.04-5.44,5.65-1.3,11.29-2.61,17.74-4.1,2.35-2.77,1.99-7.11,1.62-11.23-.66-7.34,4.11-12.22,7.63-17.58,1.73-2.64,8.1-2.74,12.17-2.78,8.46-.08,13.1,5.56,17.74,10.94,2.64,3.07,4.3,7.07,1.18,11.43-1.61,2.25-1.62,5.85-3.5,7.64-3.06,2.92-3.22,5.97-2.63,9.54,2.66,1.1,5.23,2.33,7.92,3.24,4.93,1.66,9.07-.91,12.96-3.21,3.15-1.87,5.77-4.63,8.67-6.95,2.68-2.15,5.37-4.3,8.14-6.34,.94-.69,2.07-1.24,3.19-1.53,4.38-1.14,26.6-2.84,30.82-1.43,8.42,2.8,17.64,4.49,23.39,13.55,0,1.92,.18,4.72-.04,7.48-.27,3.43-.96,6.71-4.94,8.06-1.09,.37-1.79,1.81-2.87,2.34-3.89,1.88-7.51,3.98-12.29,3.9-7.46-.12-14.97,.64-22.4,1.52-1.9,.23-3.59,2.32-5.36,3.55,1.45,5.92,6.68,8.04,10.25,11.36,4.73,4.4,10.62,7.31,14.52,12.97,2.76,3.99,6.76,7.2,11.06,10.02,6.54,4.28,12.53,9.39,18.75,14.16,.37,.28,.89,.6,.98,.98,1.83,8.16,7.99,15.21,6.21,24.32-.48,2.47-.03,4.91,1.5,7.03-3.32,3.26,.48,8.55-4.58,12.16-5.01,.55-9.77-1.66-14.64-5.83-7.77-6.65-11.41-15.71-16.03-24.19-2.69-4.94-4.54-10.42-6.17-15.84-1.43-4.77-3.68-8.75-6.91-12.55-3.23-3.82-5.67-8.33-8.23-12.67-3.22-5.45-6.28-10.99-10.91-15.43-.5-.48-1.18-.77-2.36-1.52-1.07,2.89-1.58,4.98,.57,7.51,2.82,3.32,5.3,6.95,7.63,10.64,2.37,3.75,4.47,7.7,2.88,12.56-.2,.11-.65,.29-1.04,.55-11.77,7.88-23.12,.33-27.67-7.58-3.28-5.7-7.28-10.79-10.95-16.15-3.28-4.78-7.69-8.79-9.78-14.39-.09-.23-.91-.18-1.81-.33-1.46,2.17-1.28,5.05-.48,7,5.18,12.59,4.45,25.75,4.39,38.86-.02,4.83-3.26,8.47-5.45,12.29-1.51,2.64-3.03,5.63-6.64,7.32-5.45,2.56-8.85,3.18-13.2-.93-8.27-7.8-12.61-12.12-16.2-27.82-2.69-11.78-1.84-19.29,1.83-28.68,2.16-5.53,4.68-11.17,4.32-17.4-.18-3.18-1.32-4.22-4.64-4.4-5.72-.31-11.07,.95-16.46,2.94-4.22,1.56-7.67,4.07-9.85,7.5-3.59,5.64-8.14,10.62-10.8,16.99-1.32,3.15-.99,6.2-1.75,9.24-1.81,7.27-4.1,14.53-4.07,22.09,.02,5.16,.1,10.61,1.75,15.38,1.05,3.03,1.06,5.8,1.18,8.68,.2,5.11-1.06,10.57,.37,15.25,1.39,4.56,.55,8.9,1.09,11.6,2.32,2.32,3.73,3.73,5.27,5.26-.1,.04,.43-.04,.76-.34,1.13-1.04,2.12-2.24,3.29-3.22,5.81-4.84,9.57-5.99,16.81-.18,.6,.48,1.09,1.08,1.89,1.87-.96,11.88-5.77,21.9-16.49,28.05-5.85,3.36-8.5,7.56-8.43,14.21,.04,4.64-1.16,9.29-1.36,13.95-.21,4.68-2.33,8.93-2.89,13.34-.77,6.11-4.35,11.07-5.24,17.2-.77,5.34-4.48,10.37-7.38,15.25-3.42,5.76-6.28,11.74-8.14,18.13-1.32,4.51-3.67,9.01-1.86,14.78,5.25-3.34,10.12-6.38,14.92-9.51,13.01-8.47,26.55-16.08,41.54-20.21,5.19-1.43,8.09-5.22,12.21-7.63,7.29-4.26,14.71-7.63,22.95-9.67,4.96-1.23,9.83-1.51,14.77-1.32,9.35,.37,18.1,2.75,25.56,8.78,.51,.41,1.36,.39,2.34,.65v6.94c-4.73,5.6-11.56,9.3-18.45,11.83-5.48,2.01-11.37,5.49-17.53,3.83-5.77-1.55-11.72-2.13-17.4-4.32-7.83-3.01-16.23-2.75-23.96,.08-9.54,3.49-19.34,6.57-28.04,12.07-5.17,.36-7.06,5.84-11.52,7.46-.87,.32-1.06,2.51-1.6,3.93,7.17,2.54,14.45,2.71,21.28,5.25,3.65,1.36,8.25,.68,11.9-2.41,3.13-2.65,6.51-5.16,10.15-7,3.45-1.75,7.15-4.36,11.36-1.11,3.76,2.9,6.13,6.34,5.7,11.28-.14,1.65-3.06,5.76-5.06,7.17-2.18,1.54-4.47,2.96-6.5,4.69-3.2,2.72-3.15,4-.17,7.38,.51,.57,1.08,1.09,2.09,2.1,7.54-.61,15.48-1.49,23.45-1.81,6.6-.27,12.32,2.33,17.06,6.96,1.65,1.61,3.2,3.32,4.91,4.87,3.38,3.07,1.83,7.91,4.19,11.32-1.7,2.87-2.6,6.48-6.43,7.45-2.57,.65-5.19,1.14-7.81,1.54-7.98,1.25-14.82-1.62-21.54-5.55-1.56-.91-3.31-3.62-6.41-1-2.14,1.81-3.89,3.29-3.89,6.04-.01,7.24-.62,14.53,1.5,21.63,.14,.46,.06,1.02,.29,1.41,.85,1.45,2.32,2.77,2.54,4.28,.22,1.46-1.32,3.15-1.21,4.67,.58,8.12-4.48,13.59-8.8,19.42-1.61,2.18-3.41,4.22-5.12,6.33-1.96,2.41-9.77,3.76-12.19,1.88-.85-.66-1.54-2.04-1.57-3.12-.16-5.11-.18-10.24,0-15.35,.05-1.34,.73-2.81,1.51-3.94,2.72-3.95,4.7-8.34,6.96-12.51,2.41-4.43,4.77-9.2,5.47-15.13-4.3,.75-8.05,1.4-11.41,1.99-1.58-1.58-2.67-2.67-4.14-4.14,0-4.93-.31-10.27,.09-15.57,.36-4.79,2.61-9.47,.82-14.64-.92,.34-1.87,.39-2.21,.87-2.75,3.95-7.1,6.81-8.02,12.04-.18,1.05-1.49,1.95-2.36,2.84-2.51,2.56-5.44,4.8-7.52,7.67-3.68,5.08-9.35,6.21-14.66,7.29-2.91,.59-6.81-.87-9.46-2.63-2.25-1.49-2.82-4.76-2.92-7.9-.19-5.57,2.05-9.92,5.59-13.85,1.37-1.52,2.88-2.92,4.34-4.35,1.77-1.74,3.26-4.03,6.33-3.26,5.32-5.52,12.89-8.03,18.2-13.57,4.34-4.53,3.05-10.29-3.05-10.74-5.58-.42-11.27-.91-17.1,1.06-7.09,2.4-13.85,4.95-20.05,9.27-1.75,1.22-2.7,2.22-3.66,4.03-.79,1.51-3.13,2.14-4.61,3.38-1.56,1.31-3.42,2.63-4.24,4.37-1.99,4.25-6.04,7.1-7.69,11.39-1.62,4.22-5.11,6.99-7.21,10.82-4.65,8.48-11.57,15.49-16.21,24.01-5.55,3.8-7.58,10.96-13.97,14.15-3.23,1.62-4.81,5.78-8.75,6.94v5.63c3.85,4.61,7.67,8.9,11.12,13.47,1.55,2.05,2.51,4.43,2.78,7.32,.73,7.86-1.88,15.4-1.67,23.17-2.32,3.61-2.59,8.11-5.61,11.53-7.83,8.88-18.16,13.67-28.8,17.74-7.49,2.87-14.3,2.52-22.41,.27-1.1-.3-2.77-1.31-2.84-2.09-.28-3.53-3.4-3.09-5.31-3.86-2.2-.89-4.33,.17-5.76,2.32-3.32,4.98-5.25,10.63-7.59,16.06-3.33,7.7-9.13,13.63-13.71,20.43-3.57,1.01-4.22,5.32-7.92,6.55-4.28,1.42-2,6.79-4.59,9.5-1.07,8.01-3.92,15.72-3.25,24.07,.3,3.71-1.25,7.58-2,11.37-.79,4.02-1.81,8-2.38,12.05-.4,2.89,.04,5.77-1.52,8.61-3.35,6.11-3.7,13.26-6.25,19.66-1.49,3.73-3.22,7.36-5.15,11.77,2.43,0,4.35,.21,6.19-.06,1.61-.24,3.55-.6,4.64-1.64,3.09-2.95,7.73,1.01,10.48-2.63,3.48,.21,6.43-2.21,10.13-1.63,12.62,1.99,24.56,5.27,33.86,14.79,3.95,4.05,6.31,8.64,5.99,14.42-.22,4.02,.43,8.29-.76,11.99-1.13,3.53-4.53,6.27-6.19,9.71-1.83,3.79-4.57,7-7.83,8.87-11.38,6.5-22.48,4-30.74-6.3-.67-.84-.22-2.73,.03-4.07,.12-.62,.96-1.16,1.57-1.63,1.28-.99,2.88-1.7,3.86-2.92,.84-1.04,1.41-2.63,1.4-3.97-.04-4.51,3.25-6.4,6.24-8.58,.77-.56,1.71-.93,2.42-1.56,3.84-3.42,3.39-6.84-1.15-9.2-3.46-1.8-7-3.26-11.03-3.08-2.25,.1-4.5,.02-7.73,.02,1.18,1.91,1.67,3.78,2.61,4.04,4.08,1.14,4.84,3.82,4.07,7.66-5.11,.69-10.42,1.73-15.76,1.98-2.87,.13-5.75,3.01-8.83,.27-.21-.18-2.12,1.54-3.75,2.76,3.67,3.61,9.6,2.71,11.65,7.58-.59,1.97-1.67,3.06-4.07,3.44-5.89,.93-11.69,2.59-17.08,5.07-3.04,1.39-5.9,.8-8.83,.92-3.69,.14-6.44,1.6-8.9,4.36,1.71,3.56,5.08,3.96,7.8,5.45,.85,2.72,.15,4.5-2.87,5.66-9.96,3.84-19.49,8.85-30.15,10.69-3.11,3.04-7.49,.74-11.17,2.82-2.84,1.61-7.01-.4-9.45-2.43-8.32-6.9-17.08-5.65-26.16-2.52-2.46,.85-4.92,1.72-7.32,2.73-3.36,1.41-6.44,1.35-9.91-.17-5.63-2.46-10.75-6.36-17.24-6.61-3.19-3.65-6.16-.6-8.3,.98-3.33,2.46-6.64,4.85-10.19,7.01-2.53,1.54-3.79,4.39-3.76,7.58,.03,4.35-.02,8.7,.02,13.05,.06,7.17-1.94,13.95-5.15,20.12-4.07,7.85-10.76,13.51-18.76,17.21-3.63,1.68-7.76,2.43-11.75,3.12-7.1,1.23-13.4-1.65-19.58-4.6-1.52-.72-2.95-1.89-4.03-3.18-2.54-3.02-4.85-6.23-7.67-9.9-31.48,19.17-85.96,31.33-120.88,41.11m298.8-632.8c.47-.02,.94-.03,1.41-.05-.2-1.51-.4-3.02-.59-4.52-.34,.03-.68,.06-1.03,.09,.07,1.49,.14,2.98,1.43,3.97,.12,5.62-.94,11,3.09,15.33-.51,3.44,2.17,5.75,3.14,8.68,4.69,14.16,9.86,28.17,14.3,42.41,2.06,6.59,6.06,12.4,7.18,19.29,3.14,1.61,.62,5.05,2.51,7.47,1.6,2.05,1.27,5.52,2.13,8.26,.77,2.47,2.24,4.72,2.97,7.2,1.69,5.7,3.94,11.19,5.06,17.14,1.13,5.99,3.71,11.72,5.77,17.52,1.34,3.78,2.85,7.52,4.38,11.23,1.65,4.02,1.54,8.42,2.99,12.56,.82,2.33,1.54,5.13,1.7,7.71,.19,3.15,1.82,5.42,3.18,7.94,.21,.4-.05,1.02,.04,1.52,.48,2.61,.86,5.25,1.56,7.8,1.21,4.4,2.81,8.64,3.17,13.31,.23,3.01,2.05,5.87,2.46,8.89,.65,4.79,3.83,8.08,6.1,11.8h4.53c1.32-2.73,2.91-5.35,2.12-8.43-.77-2.98-1.79-5.9-2.75-8.83-3.24-9.91-6.5-19.82-9.77-29.72-3.13-9.46-6.27-18.95-8.75-28.58-1.37-5.34-4.12-10.07-5.23-15.6-1.12-5.58-3.38-11.29-5.73-16.73-2.36-5.44-2.75-11.5-5.69-16.85-2.25-4.1-3.33-8.83-5.11-13.22-3.31-8.18-4.6-17.05-7.91-25.12-2.68-6.53-5.41-13.12-8.12-19.66-2.79-6.76-6.24-13.3-8.27-20.36-2.17-7.54-6.2-14.35-8.26-21.92-.11-.39-1.27-.5-4.01-.54ZM482.79,888.52c0-2.72-.09-5.52,.04-8.3,.05-1.16,.25-2.56,.93-3.42,2.77-3.51,5.39-7.26,8.74-10.15,3.64-3.14,8.73-4.13,13.25-4.88,8.61-1.42,17.03,1,25.08,4.08,3.31,1.27,7.02,2.55,9.39,4.96,5.09,5.18,11.42,9.27,14.88,16.02,1.1,2.14,3.57,3.76,4.15,5.95,2.16,8.19,6.03,16.07,5.06,24.93-.22,2.01-.78,4.69,.21,5.97,2.06,2.65,.3,5.63,1.43,7.9,1.43,2.88,1.51,5.72,1.35,8.64-.3,5.56,2.25,9.89,5.77,13.74,5.83,6.38,13.21,9.65,21.78,10.49,1.87,.18,3.82,.7,5.48,1.55,2.63,1.34,3.37,5.54,1.38,7.73-1.11,1.22-2.86,1.84-4.1,2.98-3.09,2.83-6.99,1.92-10.09,1.25-3.55-.77-7.64-1.46-10.35-4.54-1.3-1.47-3.22-2.96-3.48-4.64-.31-2.03-1.3-3.15-2.52-4.38-1.98-2-3.98-3.98-5.94-5.94h-5.97c.7,3.1,1.04,5.95,1.99,8.59,2.35,6.52,5.63,11.97,13,14.46,5.78,1.95,11.23,5.01,16.82,7.59,4.73,2.19,9.08,5.03,14.22,6.55,2.62,.77,5.46,1.82,7.86,3.19,4.36,2.47,8.96,4.52,13.18,7.13,6.56,4.05,13.96,5.92,20.87,9.05,9.05,4.1,18.03,8.45,27.57,11.34,6.83,2.07,13.06,5.61,19.89,7.65,3.86,1.16,7.62,2.68,11.51,3.74,7.57,2.08,14.74,5.34,22.4,7.2,4.25,1.03,8.29,1.27,12.41,.12,7.78-2.16,15.08-5.74,22.98-7.62,8.82-2.1,16.55-7.02,24.97-10.22,3.98-1.51,7.81-3.36,11.95-4.56,4.08-1.18,7.38-4.46,11.87-4.72,1.57-2.48,4.29-.63,6.24-1.63,6.34-3.24,12.78-6.33,18.94-9.88,1.74-1.01,3.6-1.51,5.18-2.33,4.4-2.29,10.4-2.19,12.86-7.75,.25-.56,1.18-1.22,1.75-1.18,3.73,.27,5.49-4.19,9.25-3.72,7.29-5.04,15.09-8.94,23.5-11.95,3.17-1.13,6.6-3.44,8.45-7.42,1.87-4.04,2.37-7.83,1.74-12.67-9.99,2.22-11.81,12.82-19.47,17.31-5.43-.66-11.66,1.62-17.08-2.31-.28-2.79,.49-4.47,3.56-5.5,5.82-1.96,11.84-3.06,17.09-7.14,6.23-4.83,9.92-10.05,10.16-18.09,.43-14.44-1.94-29.03,2.84-43.3,1.88-5.6,3.12-11.14,7.91-15.19,3.12-2.64,5.84-5.74,8.74-8.63,.88-.88,11.06-6.91,12.11-7.54,3.44-2.07,7.24-2.38,11.08-3.08,3.1-.56,6.32-2.4,9.12-.71,3.16,1.92,7.16-.69,9.77,2.46,5.76,.66,8.88,4.92,12.13,8.95,1.06,1.32,1.89,2.84,3.1,4.68,0,.94-.13,2.49,.02,4.01,.75,7.4-2.5,12.09-9.41,14.68-1.84,.69-3.5,1.36-5.53,1.57-3.61,.38-4.78,3.82-2.32,6.41,2.87,3.02,5.89,5.69,9.91,7.54,2.97,1.37,4.98,1.5,7.28-.27,5.07-3.9,10.78-7.35,12.3-14.24,.73-3.3,2.51-4.9,5.77-5.82,2.44-.69,4.92-2.21,6.73-4.01,4.8-4.77,9.95-9.19,13.78-14.95,2.22-3.34,5.5-6.08,8.62-8.71,3.14-2.64,5.02-6.31,8.43-8.81,3.1-2.27,5.2-5.92,7.73-8.97,2.36-2.86,4.93-5.58,7.01-8.63,2.63-3.85,5.03-7.68,10.1-8.84,1.28-.29,2.48-1.79,3.31-3,1.95-2.83,3.29-5.64,.89-9.18-2.16-3.2-3.95-6.75-3.21-10.96,.15-.86-.46-1.84-.63-2.77-.32-1.67-.8-3.35-.8-5.02,0-2.78,1.31-4.11,3.96-4.23,2.54-.11,5.09-.02,7.52-.02,1.75,1.74,3.3,3.45,5.03,4.98,2.29,2.03,6.62,1.64,7.75-1,1.02-2.39,3.87-5.11,.3-7.82,.39-5.81-1.94-10.73-4.42-15.84-1.4-2.89-1.82-6.45-1.87-10.02-.14-9.98,1.11-19.77,3.33-29.41,1.37-5.97,3.04-12.1,6.58-17.17,1.82-2.61,3.1-5.42,4.76-8.05,1.16-1.84,2.35-3.73,3.82-5.31,2.96-3.19,6.29-6.04,9.16-9.3,3.17-3.6,7.04-6.05,11.27-8.11,6.39-3.1,12.48-6.86,19.45-8.71,4.36-1.16,8.57-2.96,12.97-3.86,2-.41,3.6-1.13,4.05-2.72,1.23-4.36,5.34-7.64,4.71-12.65,2.15-1.71,0-5.87,4.12-6.82,1.01-.23,1.49-3.28,2-5.1,.64-2.31,1.22-4.66,1.52-7.04,.31-2.41-.49-5.03,1.58-7.03-.59-5.28,2.68-9.7,3.49-14.77,.73-4.61,1.77-9.44,3.05-14.01,2.13-7.6,6.34-14.63,5.8-22.91,3.56-4.09,.91-7.75-.62-11.47-5.06-.03-8.45-.91-10.59-2.71-3.2-2.69-4.03-6.57-.82-8.71,2.38-1.59,4.44-4.91,8.32-3.98,1.44,.34,3.03,.06,4.45,.06,5.83-6.08,6.93-13.04,3.94-19.59-1.72-3.77-4.12-5.35-8.09-4.98-1.02,.09-2.06-.1-3.07,.03-7.65,1.04-13.66-2.59-19.78-6.78,.15-2.21-.31-4.8,.7-6.51,.58-.99,2.05-2.66,3.02-3.12,5.68-2.7,11.54-5.23,18.12-2.67,1.21,.47,2.79,.33,4.13,.08,1.61-.3,3.15-1.03,4.7-1.57,1.25-4.02-1.66-5.13-4.42-6.28v-4.83c.85-.29,1.74-.6,2.65-.91,1.7-4.52,.06-8.92-1.56-12.82-1.24-3-.12-7.24-4.06-9.15-.42-.2-.04-1.93-.13-2.93-.1-1.22,.06-2.65-.53-3.6-4.07-6.61-4.19-14.36-5.27-21.54-1.19-7.94-2.71-15.72-5.02-23.35-1.57-5.19-3.85-10.16-5.78-15.13h-8.93c-2.21,2.13-4.7,4.93-3.45,7.62,1.72,3.73,1.5,7.37,1.2,10.97-.44,5.31-1.04,10.8-6.08,14.36-1.44,1.02-2.61,2.45-3.82,3.77-3.53,3.82-8.19,2.71-12.58,3.1-3.5,.31-4.75-2.26-6.6-4.1-.93-7.31,1.76-14.86,6.21-23.59,3.39-6.65,8.26-12.12,15.54-14.76,2.91-1.06,5.8-1.97,8.51-3.61,5.11-3.09,5.21-2.93,4.41-9.23-6.4-.6-12.59,3.3-19.44,.81-.52-1.02-.85-2.7-1.87-3.5-4.28-3.37-2.05-7.94-2.55-11.99,2.93-1.65,1.21-7.95,6.88-6.87,1.77-2.01,4.18-3.36,3.99-6.87-.14-2.63-1.7-3.93-2.76-5.84-2.5-4.55-4.37-9.44-6.65-14.12-1.75-3.58-4.22-5.27-6.62-3.72-5.12,3.31-11.22,3.84-16.47,6.71-4.44,2.42-9.33,3.9-14.51,3.9-6.15,0-12.3,0-18.52,0-1.21-1.25-2.46-2.53-3.81-3.92-.27-6.51,1.51-12.33,6.4-17.15,1.71-1.69,3.37-3.71,4.24-5.89,1.1-2.76,3.3-3.76,5.33-5.47,4.5-3.79,10.2-5.17,14.78-8.57-.42-1.24,.56-2.5-1.49-3.66-6.03-3.42-11.7-.48-16.87,1.13-11.94,3.73-20.32,12.57-27.81,22.28-3.5,4.54-7.21,9.1-12.59,11.5-4.13,1.84-7.79,4.04-10.51,7.87,.1,1.4-.21,3.09,.38,4.38,3.12,6.9,6.47,13.7,9.71,20.55,1.31,2.78,3.5,5.57,3.6,8.41,.15,4.73,2.57,8.19,4.52,12.03,.85,1.67,1.1,3.64,1.9,5.35,2.59,5.58,2.94,12.13,7.58,16.87,1.04,1.06,.95,3.15,1.64,4.65,3.89,8.43,4.77,17.9,9.2,26.13-1.48,3.61,4.35,4.4,3.07,7.94,4.41,7.08,4.88,16.01,10.69,22.48,1.01,1.13,1.1,3.09,1.61,4.67,1.02,3.16,1.87,6.39,3.12,9.46,2.14,5.26,3.9,10.66,5.97,15.95,2.86,7.27,5.37,14.64,8.93,21.65,1.46,2.87,2.62,6.15,3.84,9.15,1.78,4.36,1.82,8.98,3.48,13.14,2.63,6.6,4.02,13.66,7.49,19.92,.35,.62,.82,1.23,.97,1.9,1.17,5.16,2.17,10.34,6.04,14.42,.91,.96,1.62,2.59,1.58,3.88-.15,4.3,2.16,7.85,3.22,11.76,2.91,10.8,5.72,21.65,9.32,32.22,1.96,5.75,.98,11.39,1.32,17.07,.05,.8-.94,1.62-1.31,2.49-3.23,7.63-10.64,8.35-17.23,10-4.5,1.13-9.51,.44-13.87,1.86-4.18,1.36-8.44,1.99-12.65,2.71-4.33,.75-8.77,.7-13.21,1.45-7.08,1.2-14.36,.3-21.66,1.5-8.83,1.46-17.95,.48-27.02,1.53-14.01,1.62-28.21,.05-42.41,1.5-14.2,1.45-28.66,.32-43.01,.32-.26,0-.52-.03-.77,0-1.91,.26-3.76,.44-5.7,.99-3.47,1-7.72,1.1-11.16,.03-4.55-1.41-8.49-1.47-12.78,.42-2.15,.95-4.65,1.43-7.02,1.54-4.86,.23-9.73,.07-14.6,.07h-29.98c-5.12,0-10.29,.4-15.36-.11-4.88-.49-9.25,1.55-13.97,1.74-9.27,.36-18.48-.33-27.86,1.1-10.59,1.62-21.48,2.84-32.36,1.92-3.01-.26-6.07-.04-9.04-.04-1.83,2.09-5,4.13-4.84,5.85,.42,4.4-2.96,7.11-3.57,11-.61,3.86-2.87,7.46-4.53,11.46,.83,.75,1.78,2.32,2.63,2.27,6.45-.44,12.94,1.22,19.4-1.3,6.8-2.65,7.08-2.09,13.67,.81,5.09,2.24,7.55,5.89,7.48,11.4-.06,4.6-.47,9.27,.11,13.8,.6,4.66-2.02,8.67-1.74,13.2,.16,2.63-.49,5.23-1.13,7.88-1.01,4.18-2.73,8.49-1.95,13.12,.4,2.35,.16,4.74-1.31,7.11-1.19,1.92-1.34,4.59-1.63,6.96-.3,2.44,1.39,3.6,3.54,3.86,1.77,.22,3.58,.04,5.37,.04,9.74,0,19.49,.39,29.2-.11,9.81-.5,18.99,3.56,28.71,3.21,.69-.03,1.4,.3,2.08,.52,7.02,2.24,13.76,5.15,20.23,8.68,7.63,4.16,11.48,10.21,12.31,18.9,.09,.92,.74,1.79,.83,2.71,.19,1.89,.87,4.21,.05,5.57-.91,1.52-.75,2.83-.9,4.26-.52,4.9-.24,10.07-1.76,14.64-1.56,4.69-1.03,9.62-2.82,14.17-1.21,3.08-2.69,6.24-3,9.47-.98,10.39-5.02,20-7.26,30.07-1.58,7.14-2.3,14.36-3.45,21.53-.55,3.43-1.22,6.48-2.75,9.66-1.97,4.09-5.16,6.43-8.77,8.49-4.34,2.47-8.78,4.76-13.2,7.07-4.03,2.1-8.81-.42-12.95,2.21-1.46,.93-4,.15-6.05,.15-.51,0-1.32,.21-1.49-.03-2.45-3.36-7.17,.46-9.53-3.04-3.84,0-7.7,.21-11.53-.05-5.18-.36-10.49,1.25-15.57-1.37-1.39-.72-4.16-.76-5.14,.14-2.11,1.93-4.35,1.36-6.45,1.2-4.15-.33-8.59,1.57-12.47-1.41-.25-.19-1.12-.01-1.36,.28-1.82,2.26-4.3,1.15-6.43,1.16-13.32,.12-26.64,.06-39.97,.06s-27.16-.21-40.74,.06c-13.11,.26-26.25-1.02-39.36,1.32-6.6,1.18-13.26-2.42-20.1-1.44-.55,.08-1.18-.83-1.85-1.02-6.35-1.79-12.31-4.28-16.92-9.25-3.35-.21-4.41-3.06-5.23-5.37-1.57-4.49-2.59-9.19-3.62-13.86-1.33-6.1-2.44-12.23-4.01-18.29-1.14-4.39-2.48-8.71-3.67-13.07-.82-3.02-.39-6.79-2.08-9.05-2.2-2.94,.13-6.22-2.22-9.23-1.6-2.05-2-5.71-2.92-8.66-1-3.21-1.09-6.69-2.11-9.89-1.62-5.07-2.16-10.39-3.62-15.41-1.26-4.33-.31-8.47-.93-12.64-.73-4.87,2.32-8.11,4.41-12.03,2.67-5.02,7.91-6.6,11.34-10.44,1.24-1.39,4.02-1.27,5.91-2.22,4.19-2.1,8.68-2.64,13.2-3.49,3.98-.75,7.78-2.38,11.94-2.66,4.16-.28,8.28-1.08,12.44-1.44,2.54-.22,5.14-.24,7.68,.01,2.63,.26,5.21,1.33,7.83,1.41,6.64,.21,13.29,.07,19.55,.07,1.58-1.45,2.89-2.65,4.62-4.24-.66-4.42-1.8-9.03-1.9-13.66-.07-3.3-.41-6.51-1.81-9.27-1.46-2.87-1.34-5.7-1.41-8.64-.02-1.02,.43-2.43-.08-3.01-2.78-3.14-.29-7.08-1.63-10.1-1.51-3.42-1.3-6.75-1.36-10.18-.05-2.81,.37-5.69-.1-8.43-.78-4.56,1.98-7.91,3.44-11.68,.37-.95,1.81-1.62,2.89-2.11,1.51-.68,3.34-.76,4.69-1.64,3.72-2.41,8.05-2.29,11.51-1,4.5,1.68,9.3,2.2,13.63,4.17,3.05,1.39,6.15,1.57,9.38,1.5,3.58-.08,7.15-.02,10.65-.02,2.55-2.48,4.81-4.87,5.5-8.6,.59-3.21,2.04-6.3,3.36-9.33,.26-.59,1.69-.67,2.48-.95v-7.22c-3.73,0-7.5,.79-10.76-.17-6.65-1.95-13.01-2.26-19.56,.08-.93,.33-2.31-.43-3.43-.83-3.35-1.19-6.59-3.18-10.01-3.53-6.93-.71-13.88-.31-20.91-1.44-9.11-1.46-18.49,.3-27.8-1.58-7.27-1.46-15.06,.96-22.38-1.74-11.14,1.14-22.08-1.58-33.18-1.64-7.73-.04-15.62,1.51-23.19-1.43-10.63,1.12-21.03-1.94-31.65-1.65-5.15,.14-10.56,1.43-15.5-1.42-7.08,1.1-13.89-1.3-20.88-1.61-10.81-.47-21.59,.91-32.47-1.19-7.41-1.43-15.35-.7-23-.15-7.62,.55-14.87-1.84-22.43-1.79-9.26,.06-18.53-.89-27.8-1.4-.26-.01-.54,.07-.77-.01-8.33-2.82-16.94-3.53-25.63-2.99-4.82,.3-9.38-.73-13.96-1.66-7.67-1.55-12.17-6.46-10.95-12.83,.88-4.59,1.79-9.33,4.02-13.65,1.95-3.77,4.03-7.67,4.9-11.76,2-9.36,4.82-18.47,7.96-27.44,2.26-6.45,3.03-13.45,7.17-19.32,1.41-1.99,1.24-5.07,1.94-7.61,.31-1.13,1.25-2.12,1.4-3.24,.32-2.4,2.24-4.34,1.74-7.03-.19-1.02,.78-2.21,1.02-3.36,1.22-5.88,4.47-10.98,6.42-16.53,3.39-9.61,6.2-19.44,9.41-29.12,.82-2.46,2.1-4.76,3.03-7.19,2.1-5.53,3.34-11.56,6.34-16.54,5.47-9.08,7.7-19.36,11.85-28.91,4.6-10.61,8.54-21.53,13.52-32.01,.71-1.5,1.53-2.95,2.12-4.5,2.55-6.62,4.52-13.46,7.66-19.86,1.77-3.6,4.15-7.34,4.39-11.14,.3-4.69,2.53-8.21,4.29-12.13,1.38-3.09,2.73-6.17,5.2-8.59-1.46-3.61,3.3-4.53,3.32-7.94,.01-2.57,2.02-5.25,3.51-7.65,2.03-3.27,3.07-6.61,2.38-9.4-2.59-4.53-6.51-6.33-9.24-9.44-2.83-3.24-5.94-6.23-8.84-9.41-2.5-2.74-5.48-4.96-7.24-8.5-1.02-2.04-3.67-3.24-5.53-4.88-4.63-4.07-11.02-4.44-16.04-7.67-4.84,.53-9.96-4.52-14.55,1.25,.88,.66-.95,2.25,1.75,3.66,3.54,1.85,7.34,3.44,10.73,5.76,6.36,4.35,9.65,10.93,13.66,17.07,2.45,3.75,1.3,7.77,1.43,11.68,.14,4.21-.92,5.02-5.4,5.1-2.82,.05-5.65,.21-8.45-.05-2.88-.26-5.72-1.31-8.59-1.41-7.39-.26-14.29-2.02-20.76-5.62-2.9-1.61-5.99-2.86-8.94-4.39-2.75-1.43-5.23-1.53-7.34,1.08-2.01,2.49-4.6,4.73-5.85,7.56-2.26,5.14-6.9,9.66-4.91,16.79,1.96,1.37,4.5,2.9,6.75,4.79,3.34,2.8,3.51,7.22,5.12,10.9-2.05,1.71-1.35,4.08-1.56,6.27-.38,3.96-3.44,6.69-7.45,7.09-4.28,.42-8.44-.23-12.18-2.15-2.43-1.25-4.18-1.41-5.83,.74-1.49,1.95-.81,3.98,1.97,6.31,3.04,2.56,6.92,3.24,10.54,4.2,9.41,2.49,14,9.91,18.68,17.33,.24,.39,.48,.93,.41,1.35-.5,2.91,1.4,5.04,2.28,7.51,2.58,7.24,5.12,10.71-2.9,18.29-8.41,1.5-14.11-3.21-19.44-8.52-1.31-1.31-2.77-3.21-2.83-4.89-.24-6.08,.09-12.18,.2-18.28,3.26-2.59-.22-4.69-1.09-6.19-1.24-2.14-3.94-3.59-6.25-4.92-1.99-1.15-7.95,.92-8.29,2.88-1.11,6.41-4.49,12.01-6.2,18.17-1.15,4.15-2.04,8.36-3.12,12.53-.41,1.6-1.46,3.17-1.45,4.74,.05,7.69-3.39,14.55-5.81,21.44-2.53,7.21-3.72,14.76-6.56,21.83,1.08,3.93-3.6,8.35,1.21,12.14,1.01-.26,2.2-.5,3.34-.88,8.32-2.78,16-7.09,24.57-9.37,8.12-2.16,16.11-4.17,24.57-3.73,5.01,.26,8.04,4.16,11.88,6.53,.54,.33,.49,1.83,.51,2.79,.06,3.32,.02,6.63,.02,9.87-1.32,.78-2.53,1.54-3.78,2.24-1.04,.58-2.09,1.47-3.18,1.55-10.69,.72-21.15,0-31.03-4.8-3.93-1.91-8.36-3.62-12.61-2.58-2.64,.65-5.18,1.21-7.88,1.31-3.65,.14-4.2,.97-4.09,6.13,4.04,0,8.1,.07,12.16-.02,4.01-.08,7.66,1.49,10.94,3.25,3.5,1.88,5.73,5.33,5.65,9.71-.08,4.53-4.32,5.87-7,6.65-3.06,.88-5.59,2.99-8.62,3.34-3.54,.41-7.16,.16-10.75,.08-3.72-.08-7.41-.14-10.6,2.42,.68,5.8-1.53,12,2.35,17.55,2.22,0,4.52-.05,6.81,.01,2.51,.07,7.91,2.29,9.23,3.68,2.51,2.65,3.75,5.72,3.15,9.26-3.82,4.81-8.31,7.9-14.83,7.13-1.08-.13-3.38,1.45-3.39,2.26-.1,5.8-.07,11.63,.53,17.39,.6,5.71,4.22,10.8,3.92,16.77,3.43,3.3-.4,8.49,3.06,11.78-.23,4.02,1.9,7.39,2.87,11.06,1.04,3.93,.99,8.26,1.47,12.39,.77,6.57,3.24,12.79,3.36,19.42,2.46,1.65,.82,5.29,3.66,7,2.53,1.52,5.04,2.45,7.89,3.3,8.62,2.55,17.53,3.81,25.62,8.74,6.77,4.13,12.41,9.43,18.74,13.95,5.79,4.14,8.15,11.11,12.86,16.25,2.14,2.33,2.84,6.45,4.22,9.66,3.41,7.95,5.47,16,5.42,24.63-.03,6.14-.11,12.28,.03,18.42,.11,4.48-.67,8.6-2.44,12.82-3.24,7.71-5.18,15.78-3.24,24.11,2.92,.95,4.55-.73,5.99-2.5,4.09-5.04,9.08-7.76,16.22-6.21,.15,.16,.61,.78,1.19,1.27,2.46,2.09,3.31,4.14,.78,6.96-1.01,1.13-1.72,3.17-1.5,4.65,.62,4.31-1.45,8.15-3.74,10.68-2.96,3.27-2.26,6.25-2.51,9.15,1.56,1.56,2.65,2.64,3.83,3.82,1.17,0,2.45-.07,3.71,.02,1.59,.1,2.78-.31,4.07-1.45,.89-.79,3.77,1.28,3.69,2.77-.15,2.88-.72,5.73-1.17,9.05,1.8,1.77,4,3.9,6.18,6.06,2,1.98,3.99,3.98,5.98,5.97,2.17,2.17,4.45,4.25,6.49,6.54,1.78,2,3.01,5.64,5,6.05,3.95,.81,3.6,4.43,5.73,6.3,7.4,6.48,14.5,13.31,21.81,20.09,2.45,0,5.01-.1,7.55,.03,3,.15,6.68,5.04,4.92,7.13-2.72,3.25-.2,5.71,.86,7.34,2.68,4.13,7.5,6.07,11.74,8.42,1.1,.61,3.13,.33,4.4-.26,5.3-2.46,10.79-4.64,14.5-9.64,1.37-1.85,2.15-3.3,1.18-4.64-3.89-1.06-7.2-1.74-10.35-2.88-4.69-1.69-7.2-6.11-10.96-9.25Zm-12.27-547.38c-2.08,3.85-5.07,7.42-5.99,11.46-2.18,9.58-5.68,18.72-9.68,27.48-3.54,7.74-5.33,16.3-10.49,23.3-.16,4.66-1.84,9.26-4.14,12.8-2.77,4.27-1.73,9.5-4.99,13.39-1.11,1.33-.93,3.67-1.66,5.41-4.03,9.59-8.59,18.98-12.13,28.74-2.66,7.34-4.92,14.84-7.45,22.24-2.53,7.4-5.4,14.69-8.44,21.84-4.65,10.94-8.01,22.28-12.14,33.36-1.51,4.03-2.42,8.18-3.87,12.2-2.97,8.25-4.97,16.83-8.16,25.02-1.37,3.53-1.84,7.45-3.46,10.84-1.69,3.55-1.51,7.81-3.4,10.83-2.15,3.45-2.27,7.27-3.75,10.78-2.76,6.53-4.36,13.55-6.33,20.4-1.24,4.28-.04,6.47,3.85,7.72,3.84,1.23,7.74,2.33,11.46,3.87,4.17,1.73,8.64,.1,13.01,1.99,3.23,1.4,7.58,.08,11.4,.33,3.9,.26,7.76,1.24,11.67,1.41,5.62,.25,11.28,.28,16.9,.01,7.73-.36,15.53,1.19,23.24-1.34,2.66-.87,5.69-.54,8.6-1.49,2.9-.95,6.17-.41,9.37-1.51,2.97-1.03,6.6-.02,9.91-.28,3.14-.24,6.23-1.29,9.36-1.4,4.47-.15,8.61-2.65,13.19-1.61,2.81-3.14,6.9-.24,9.9-2.06,3.36-2.03,6.91-.64,10.35-.96,2.79-.26,5.9,.7,8.4-.19,8.64-3.07,17.51-3.06,26.44-2.95,1.25,.02,3.02,.37,3.66-.29,1.99-2.06,4.33-.82,6.46-1.24,2.36-.47,4.68-1.36,7.05-1.47,15.15-.73,30.39,1.41,45.47-1.58,5.81-1.15,11.3,1.67,17.04,1.52,3.66,3.19,8.9-.12,12.56,3.07,6.8,.69,13.16,3.45,20.25,3.39,3.66-.03,8.08,.94,11.54,3.34,6.5,4.51,13.35,8.26,21.08,10.35,4.31,1.16,5.57,1.22,7.36-1.65,.72-1.15,.99-2.8,.91-4.19-.53-8.74,.06-17.44-1.09-26.28-1.27-9.8-1.64-20.1,1.14-30.01,.63-19.74-1.09-39.49,1.38-59.24,1.59-12.72-.95-25.64,1.48-38.52,1.61-8.53-.13-17.41,1.49-26.24,1.66-9.04,0-18.42,1.5-27.76,1.4-8.73,.1-17.86,.35-26.81,.26-9,.94-18,1.5-26.99,.21-3.41-.56-6.81,1.35-10.21,.98-1.75,1.06-5.1-.01-6.68-2.14-3.17-.8-6.36-1.58-9.95-1.15-.95-2.66-2.23-4.2-3.48-3.98-3.21-9.23-4-13.36-6.58-5.09-3.19-10.88-3.73-16.23-5.33-5.23-1.57-11.07-2.48-16.94-2.04-5.92,.44-11.69-1.89-17.8-1.5-16.67,1.06-33.44-1.42-50.09,1.55-5.59,1-11.54-1.11-17.02,1.62-4.09-1.04-7.65,1.76-11.66,1.59-3.94-.17-7.83,.82-11.68,1.22-9.97,1.02-19.94,2.45-30.08,1.91-9.2-.5-18.44-.04-27.66-.14-2.91-.03-5.7-.21-8.7-1.15-2.81-.88-6.13-1.63-9.25-1.8-5.57-.31-11.18-.09-17.17-.09Zm-63.08-87.66c-.44,2.06,1.09,4.76-1.23,6.88-.33,.31-.23,1.44,.05,2.01,3.33,6.83-1.35,11.31-5.39,15.06-2.25,2.09-4.84,4.15-7.31,6.19-3.42,2.83-6.68,5.95-10.43,8.26-2.23,1.37-3.86,2.82-5.45,5.2,1.51,1.03,2.57,2.16,3.85,2.54,2.53,.75,5.17,1.32,7.8,1.55,3.05,.26,6.15-.04,9.22,.09,2.91,.12,6.07-.95,8.59,1.51,6.8-.43,12.04,4.54,18.58,5.34,3.93,.48,7.6,2.94,11.53,3.51,4.36,.63,7.68,4.2,12.47,3.63,1.45-.17,3.37,1.76,4.75,3.07,3.18,3.04,6.78,5.83,7.16,10.3,11.3,1.23,22.07-.3,32.99,1.44,10.31,1.65,20.96,2.87,31.59,1.91,2.03-.18,4.11-.18,6.14,0,10.88,.97,21.59-1.44,32.42-1.58,.72,0,1.59,0,2.13-.38,3.17-2.16,7.03-1.47,10.5-2.41,4.4-1.19,9.23-.38,13.95-1.58,4.43-1.13,9.43,.33,13.91-1.76,10.88,1.15,21.56-2.02,32.41-1.56,3.58,.15,7.19,.28,10.76-.02,10.63-.89,21.08,1.54,31.65,1.6,.72,0,1.47,.13,2.15,.37,3.89,1.34,7.86,2.14,11.92,2.86,5.34,.94,10.75,2.5,15.61,4.87,6.71,3.27,13.52,6.54,18.81,12.26,2.55,2.75,6.04,3.93,9.76,1.16,2.3-1.72,4.68-3.53,7.32-4.56,7.12-2.77,14.85-3.45,22.05-6.13,2.91-1.08,6.2-1.12,9.32-1.63,3.12-.51,6.27-.89,9.35-1.58,2.6-.57,4.99-1.6,7.83-1.58,24.08,.15,48.17,.07,72.25,.12,1.91,0,3.71,.12,5.75,.92,5.53,2.18,12.52-.24,14.81-5.15,3.87-8.3,9.08-15.72,13.91-23.42,3.82-6.09,7.7-12.2,11.69-18.11,3.92-5.81,8.33-11.41,12.09-17.36,1.77-2.81,3.81-5.2,6.15-7.38,1.58-1.48,3.86-2.29,5.21-3.91,1.48-1.78,2.56-4.05,3.27-6.28,2.53-7.91,8.35-13.89,12.22-21.03,1.32-2.43,1.83-4.39,1.43-6.95-10.56-1.61-20.6,.52-30.57,3.5-6.51,1.94-13.27,3.51-19.95,3.6-9.5,.12-19.09,1.44-28.61-1.19-5.59-1.55-11.33,.84-17,1.44-9.63,1.01-19.03-2.21-28.57-1.47-7.12,.55-13.91-1.34-20.88-1.81-2.26-.15-4.5-1.44-7.06-1.47-2.61-.03-5.2-1.23-7.82-1.36-5.88-.29-11.35-2.43-17.07-3.39-1.14-.19-2.17-.99-3.31-1.26-2.58-.6-5.24-.93-7.8-1.6-2.76-.71-5.4-1.86-8.17-2.5-6.76-1.57-12.67-6.33-20.18-5.23-1.14,.17-1.85-2.18-3.82-1.09-3.1,1.72-6.87,1.7-9.85,4.14-1.93,1.59-4.67,2.23-7.1,3.16-8.11,3.11-16.6,4.59-25.04,6.49-9.9,2.23-19.93,3.66-29.86,5.54-9.29,1.76-18.99,1.54-28.52,1.74-12.04,.26-24.09-.19-36.12,.21-3.88,.13-7.16-1.79-10.9-1.7-4.1,.1-8.2,.03-12.3,.01-.49,0-.99-.06-1.46-.18-7.38-1.87-17.16-1.8-24.25-.04-2.44,.6-4.85,.68-6.84-1.71-1.39-1.67-3.19-3.48-5.17-4.09-6.74-2.09-13.55-4.42-21.31-2.72,.94,5.78-1.51,11.81,1.57,17.57,.39,.74,.28,2.41-.25,2.85-1.77,1.43-1.14,3.24-1.2,4.92-.14,3.91,.59,7.96-2.48,11.29-.56,.61-.59,1.84-.59,2.79,.02,2.91-1.62,5.02-3.29,7.08-1.59,1.97-3.38,3.78-4.59,5.11h-8.41c-3.98-4.21-9.22-7.52-8.34-14.36-3.22-3.8-.74-8.31-1.54-12.41-.87-4.53,2.09-7.84,3.88-11.44,2.06-4.15,4.64-7.99,8.05-11.28,3.23-3.12,2.79-5.15-1.42-7.17-4.91-2.36-10.39-2.19-15.63-3.07-5.69-.95-11.35-1.46-16.78-4.06-9.16-4.39-16.26-2.56-21.86,5.79-2.45,3.65-5.11,7.1-7.63,10.66-7.51,10.61-16.86,19.57-25.48,30.42Zm584.08,94.47c-1.77,2.16-3.63,3.63-4.4,5.54-1.85,4.61-3.03,9.48-4.75,14.15-1.88,5.1-3.91,10.15-6.18,15.08-1.1,2.38-3.79,4.26-4.23,6.65-1.81,9.86-10,16.24-13.21,25.26-.15,.44-.7,.73-1.06,1.09-1.45,1.45-3.18,2.71-4.28,4.38-1.48,2.26,1.43,3.97,1.33,6.17-.02,.51,.12,1.06-.02,1.53-1.51,4.99-2.17,10.35-5.43,14.6-1.65,2.16-2.89,4.35-3.84,6.88-1.16,3.09-2.31,6.41-4.37,8.88-2.23,2.68-3.68,5.63-5.38,8.56-3.71,6.4-5.37,14.03-11.28,19.16-.43,.37-.18,1.43-.45,2.09-.71,1.75-1.18,3.75-2.36,5.13-5.06,5.92-6.89,13.65-11.39,19.88-.92,1.28-.9,3.21-1.63,4.67-1.7,3.39-1.9,7.43-4.79,10.32-1.34,1.34-2.34,3.08-3.27,4.76-1.02,1.86-2.71,3.98-2.46,5.77,.42,3.1-2.7,1.83-3.49,3.91-3.61,9.49-7.11,19.22-12.38,27.8-3.64,5.92-6.02,12.45-10.19,18.18-3.74,5.13-7.39,10.42-11.71,14.96-11.62,12.22-23.46,24.29-37.15,34.33-1.08,.79-1.67,2.23-2.51,3.4,3.21,1.96,6.13,2.85,9.49,2.54,8.47-.78,16.97,.87,25.55-1.31,4.82-1.23,10.25-.4,15.49,1.03,4.29,1.17,9.16,.04,13.76,.29,4.67,.26,9.3,1.07,13.96,1.46,7.21,.6,14.43,1.03,21.64,1.59,.67,.05,1.3,.59,1.98,.76,5.36,1.29,10.66,3.06,16.1,3.68,5.56,.64,11.29,.53,16.87,.03,5.61-.5,10.78,1.72,16.27,1.68,15.36-.11,30.73-.04,46.09-.04,1.54,0,3.19,.37,4.59-.06,6.86-2.12,13.85-3.17,21.02-3.01,.77,.02,1.76,.32,2.27-.05,3.66-2.62,8.05-.35,11.62-1.67,3.95-1.45,7.79-1.11,11.72-1.37,7.49-.5,14.64-1.88,19.73-9.02-1.86-6-3.88-12.34-5.78-18.72-.55-1.84-.4-3.95-1.19-5.64-1.24-2.63-2.37-5.09-2.74-8.13-.35-2.92-2.58-5.46-3.42-8.54-.44-1.62-1.12-3.27-.95-4.91,.65-6.08-2.91-11.16-3.88-16.89-.68-4.04-3.25-7.83-5.25-11.58-2.1-3.94-1.02-8.67-3.27-12.45-1.85-3.12-.62-6.87-2.2-9.83-2.31-4.35-4.71-8.52-3.99-13.75,.1-.74-1-1.59-1.34-2.47-1.11-2.86-2.5-5.7-3.08-8.67-.43-2.22-.21-4.37-2.3-6.04-.74-.59-.86-2.24-.85-3.4,.05-3.1-.75-5.77-3.01-7.99-.68-.66-1.64-1.63-1.56-2.36,.38-3.91-2.18-6.96-2.86-10.3-1.26-6.24-4.18-11.62-6.45-17.34-1.41-3.56-2.93-7-3.19-11-.26-4.06-4.3-6.88-4.49-11.14-.02-.51,.19-1.13-.03-1.52-1.81-3.19-.98-7.11-3.02-10.27-4.67-7.22-5.3-16.27-10.43-23.3-.14-.19-.34-.41-.34-.62-.2-7.86-3.39-14.97-6.42-21.89-1.52-3.47,.24-7.54-2.82-10.35-.14-6.15-4.38-10.98-5.32-17.04-.7-4.5-2.64-9.19-7.09-13.49Zm-93.77,57.19c.5,.35,1.01,.69,1.51,1.04,5.54-4.4,11.06-8.83,16.63-13.18,3.84-3.01,7.76-5.92,11.65-8.86,2.34-1.76,4.65-3.57,7.07-5.21,2.27-1.53,4.61-1.83,6.77,.32,1.58,1.58,1.49,3.66-.53,6.58-.45,.64-1.45,.88-2.13,1.38-8.05,5.93-16.48,11.42-23.99,17.97-4.94,4.31-9.9,8.72-14.33,13.73-5.13,5.8-11.1,10.99-17.23,15.76-5.91,4.59-9.19,10.72-12.29,17.12-.61,1.26-.32,3.19-1.2,4.07-4.73,4.73-5.06,12.14-10.25,16.53-1.22,5.01-5.04,8.6-7.14,13.16-1.98,4.31-3.2,8.99-5.47,13.08-6.14,11.05-13.32,21.5-18.96,32.85-1.38,2.78-3.19,5.34-4.86,7.97-5.49,8.65-10.11,17.76-14.28,27.1-.36,.81-.05,1.93-.05,3.77,2.06-.67,3.75-.85,5-1.7,2.64-1.79,5.05-3.92,7.56-5.91,2.51-1.99,5.46-3.62,7.4-6.06,2.21-2.78,5.87-2.78,7.97-4.91,3.55-3.58,8.12-5.34,12-8.15,3.64-2.64,7.19-2.98,11.17-2.84,.4,.01,.78,.51,1.16,.77v6.01c-4.19,3.7-8.2,7.47-12.46,10.95-3.77,3.08-7.75,5.93-11.76,8.7-5.07,3.51-9.86,7.33-14.61,11.25-2.83,2.33-5.24,5.1-8.28,7.26-4.46,3.16-8.56,6.91-12.44,10.79-4.23,4.25-8.05,8.91-11.99,13.44-.43,.5-.39,1.37-.72,1.99-3.05,5.65-6.25,11.22-9.18,16.93-4.23,8.22-8.18,16.58-12.46,24.78-1.57,3.01-3.24,5.87-2.89,9.53,3.86,1.25,6.98-.13,9.57-2.42,2.95-2.61,6.19-4.63,9.61-6.52,3.37-1.87,6.77-3.92,9.57-6.51,8.73-8.07,16.53-17.1,26-24.44,3.82-2.96,7.83-6.29,10.16-10.37,2.64-4.61,7.86-5.86,10.48-10.08,.9-1.44,1.84-2.89,2.98-4.13,4.82-5.21,6.08-12.51,10.69-17.87,1.86-2.16,3.5-4.67,4.58-7.29,1.57-3.83,2.92-7.49,6.04-10.64,2.57-2.59,4.52-6.36,5.38-9.93,.87-3.6,3.84-5.93,4.29-9.85,.38-3.31,3.01-6.35,4.61-9.53,2.55-5.08,4.22-10.92,7.82-15.09,4.9-5.66,7.3-12.38,10.69-18.7,1.47-2.74,3.29-5.29,4.85-7.98,2.76-4.74,6.37-9.23,7.93-14.35,2.01-6.57,6.46-11.62,9.13-17.73,1.77-4.06,5.33-7.31,7.04-11.68,1.7-4.33,3.97-8.44,6.3-13.3-1.86-.55-3.42-1.32-5.02-1.4-2.62-.14-4.9-1.24-6.38-3.02-1.1-1.33-1.02-3.62-1.41-5.27,6.85-6.3,13-12.72,20.01-18,2.84-2.14,4.82-4.57,6.74-7.23,.93-1.29,.85-3.29,1.75-4.62,6.14-9.13,10.43-19.29,16.21-28.63,2.37-3.82,3.97-8.12,6.38-11.92,2.56-4.05,4.29-8.49,7.08-12.49,5.01-7.19,8.91-15.15,13.17-22.59-2.36-3.2-4.68-4.83-8.51-4.67-2.93,.12-5.92-1.23-9.09-1.97,.47-1.69,.43-3.25,1.18-3.94,4.59-4.23,8.85-9.18,14.21-12.08,4.8-2.6,8.45-6.04,12.01-9.76,2.13-2.23,4-4.97,5.13-7.82,1.42-3.59,3.04-6.91,5.16-10.17,2.83-4.35,5.55-9.02,7.01-13.93,.9-3.04,3.21-5.39,3.43-8.59,3.6-1.44,2.83-5.47,4.73-8.07,5.63-7.71,8.12-17.07,11.86-25.75,1.04-2.42,1.63-6.68-2.73-8.29-7.92,2.4-10.87,11.56-19.24,13.95-.87-.92-1.84-1.93-3.08-3.24,3.51-4.61,6.8-8.82,9.97-13.11,2.44-3.31,4.95-6.61,7.01-10.16,1.49-2.56,.71-5.62-1.05-6.73-2.36-1.49-7.51-.81-8.82,1.42-1.8,3.06-3.05,6.47-4.99,9.43-4.19,6.4-5.8,14.07-10.54,20.26-2.17,2.84-3.3,6.04-7.56,4.74-1.3-6.33,1.23-11.17,4.44-15.99,3.71-5.57,4.4-12.48,7.52-18.37,.49-.93,.07-2.35,.07-4.81-3.15,2-5.6,3.1-7.45,4.83-5.04,4.72-9.85,9.7-14.72,14.61-.87,.88-1.96,1.75-2.38,2.85-3.31,8.69-9.75,15.43-14.75,23-5.44,8.25-11.8,15.93-16.61,24.66-1.16,2.11-3.38,3.84-3.92,6.04-1.44,5.87-3.94,11.6-3.24,17.89,.22,2.02,.03,4.09,.03,6.14-5.81,5.81-6.94,5.63-11.15-1.78-.11-.19-.39-.27-.27-.19-3.18-1.14-4.66,.95-6.01,2.69-2.36,3.06-4.42,6.34-6.57,9.55-2.12,3.17-1.9,7.56-5.22,10.12-2.01,8.33-7.47,14.85-11.61,22.07-6.08,10.6-13.77,20.2-19.14,31.22-5.55,5.28-7.87,12.67-12.12,18.83-5.13,7.43-10.45,14.89-14.02,23.32-.28,.65-.47,1.48-.97,1.88-3.45,2.66-4.49,6.86-6.68,10.32-1.01,1.59-1.57,3.46-2.56,5.07-4.23,6.93-8.92,13.48-10.04,22.03-.4,3.04-2.71,6-2.86,9.51-.16,3.65-1.93,7.05-1.61,10.89,.17,2.04-1.42,3.55-3.92,3.46-2.54-.09-5.09-.02-7.43-.02-.9,.88-1.96,1.47-2.31,2.33-3.2,8.02-8.25,15.01-12.38,22.51-1.85,3.35-4.16,6.45-6.09,9.77-3.48,5.98-6.71,12.11-10.12,18.11-3.76,6.61-8.88,12.44-11.5,19.77-1.83,5.1-4.64,9.85-6.62,14.91-1.21,3.09-1.96,6.42-2.46,9.72-.74,4.87-.48,9.97-1.77,14.66-1.2,4.32-1.7,10.14-8.88,9.67-1.29-.08-3.15,1.66-3.98,3.03-1.58,2.61-2.78,5.49-3.84,8.37-1.95,5.34-3.55,10.81-5.53,16.14-2.08,5.61-3.51,11.39-4.8,17.19-1.61,7.26-3.54,14.44-4.96,21.73-.53,2.74-.65,5.87,.9,9.85,2.08-3.09,3.84-5.22,5.08-7.62,7.01-13.49,13.59-27.2,21.36-40.29,2.54-4.29,4.19-9.2,7.21-13.09,5.65-7.27,9.29-15.65,13.93-23.46,5.08-8.55,7.75-18.34,13.12-26.8,.51-.8,.97-1.65,1.28-2.54,1.07-3.01,2.01-6.03,1.59-9.34-.44-3.47,1.92-6.46,1.68-10.12-.25-3.82,.69-7.78,1.57-11.57,.25-1.07,2.13-1.77,3.99-3.18,2.21,2.41,4.19,4.57,6.29,6.86,.61-1.05,1.2-2.09,1.82-3.13,3.32-5.54,6.69-11.04,9.95-16.61,4.22-7.2,8.4-14.43,12.49-21.7,1.53-2.72,3.08-5.4,4.75-8.05,3.14-4.98,6.34-9.99,8.26-15.74,2.9-8.65,2.72-17.73,4.42-26.54,.74-3.81,.59-7.75,1.33-11.68,.71-3.8,1.45-7.59,2.47-11.33,5.04,.46,5.41,.74,5.51,4.83,.07,2.81-.02,5.63,.02,8.44,.04,2.71,.14,5.41,.25,9.23,2.21-1.79,3.83-2.63,4.74-3.95,2.59-3.74,5.07-7.58,7.26-11.57,5.49-10,10.88-20.05,16.12-30.18,1.62-3.13,1.99-7.05,4.02-9.81,6.57-8.92,10.57-19.31,16.76-28.42,2.27-3.35,4.23-6.93,6.16-10.49,3.18-5.88,6.79-11.53,9.91-17.41,3.25-6.1,7.95-11.33,10.16-18.04,2.02-6.14,6.28-11.2,9.11-16.95,3.77-7.64,7.3-15.39,10.78-23.17,2.43-5.45,5.42-10.39,10.45-13.84,6.2,.37,6.6,.72,6.46,6.38-.04,1.68-.41,3.22-1.03,4.92-2.71,7.44-5.42,14.66-10.39,21.09-3.69,4.77-6.7,10.23-8.73,16.22,4.84,.31,4.86,.34,7.81-1.75,1.99-1.41,3.82-3.07,5.91-4.29,3.48-2.05,7.03-4.01,10.72-5.66,1.72-.77,3.72,.12,4.45,1.87,.48,1.15,.44,3.16-.29,4.02-1.57,1.85-3.84,3.09-5.61,4.8-3.12,3.03-7.78,4.35-10.28,7.54-2.83,3.61-6.89,5.36-9.83,8.71-5.57,6.33-11.51,12.43-17.94,17.87-3.84,3.25-4.38,8.23-7.81,11.45,1.27,3.68-2.93,4.77-3.68,7.72-.73,2.88-3.08,5.34-4.69,8.01-2.35,3.89-4.99,7.64-6.93,11.72-3.61,7.58-8.27,14.55-12.8,21.53-3.67,5.66-6.74,11.53-9.57,17.57-.57,1.21-.58,2.69-.85,4.04Zm-170.96,244.87c1-.52,1.72-.66,1.8-.96,1.66-6.62,2.67-13.39,3.1-20.16,.33-5.18,1.63-10.01,2.7-15,.96-4.48,3.62-8.65,3.45-13.13-.39-10.62,6.37-19.03,8.17-28.91,4.53-3.93,4.96-10.49,9.66-14.51,2.82-2.4,4.07-6.45,5.25-10.01,1.65-4.96,3.2-9.91,5.72-14.53,1.7-3.12,2.8-6.71,5.04-9.37,2.21-2.62,2.15-7.01,6.26-8.08,1.91-5.98,5.93-10.86,8.62-16.39,4.9-10.05,10.31-19.81,15.86-29.5,2.13-3.73,4.21-7.5,6.54-11.1,3.06-4.74,7.56-8.74,10-13.55,4.54-8.91,12.05-16.09,14.61-26.19,.95-3.75,3.17-7.43,4.99-10.92,1.85-3.55,3.93-7.06,5.74-10.7,.96-1.93,2.71-3.47,3.69-5.39,1.07-2.12,2.2-4.33,3.06-6.4,1.92-4.62,5.61-7.84,7.93-12.06,2.42-4.41,5.04-8.79,8.17-12.71,3.79-4.76,6.98-9.77,9.34-15.03-1.56-2.67-3.74-2.75-6.11-2.74-23.05,.05-46.11,.03-69.16,.03-1.28,0-2.74-.4-3.81,.07-6.53,2.83-13.66,2.84-20.46,4.29-8.93,1.91-18.07,3.22-26.52,6.58-6.09,2.42-13.43,3.4-16.78,9.8-1.37,15.49,.68,30.62-1.55,45.82-1.82,12.38,.02,25.09-1.55,37.73-1.8,14.48,1.31,29.31-1.8,43.84-.69,28.43,.94,56.87-1.3,85.33-1.32,16.78-.19,33.75-.3,50.63-.01,2.13-.24,4.27-.8,6.5-1.33,5.31-3.18,11.04,.44,16.74ZM208.08,398.13c.96-.28,1.79-.28,2.29-.69,3.48-2.87,5.61-6.76,8.04-10.46,7.17-10.9,14.98-21.32,24.07-30.72,5.07-5.24,10.31-10.26,16.12-14.77,6.71-5.21,14.05-9.13,21.7-12.62,2.37-1.08,4.73-2.2,7.19-3.04,2.23-.75,3.2-2.04,3.19-4.39,0-1.15,.63-2.3,.83-3.47,.64-3.8,2.5-7.2,3.56-10.8,1.41-4.79,1.32-10.03,4.61-14.23,.28-6.66,5.47-11.02,7.99-16.65,2.69-6.01,8.05-10.15,12.69-14.7,3.12-3.06,10.28-3.83,14.1-1.82,2.7,1.42,6.6,8.72,5.18,12.3-2.47,6.24-2.63,13.03-5.65,19.17-1.63,3.3-2.48,7.39-1.97,11.51,.28,2.28,.97,3.73,3.01,4.63,1.5-.68,3.71-.95,4.39-2.12,3.04-5.15,7.51-9.18,10.79-13.99,4.44-6.5,8.56-13.29,12.76-19.99,2.58-4.12,5.18-8.54,8.81-11.58,3.01-2.52,5.49-5.19,8.01-8.15,6.53-7.69,13.65-14.87,20.53-22.26,6.53-7.02,13.04-14.05,19.57-21.07,.35-.37,.81-.67,1.07-1.1,3.58-5.66,7.75-10.83,12.5-15.56,2.89-2.88,5.68-5.86,8.99-9.28,3.39,1.19,6.88,2.1,10.1,3.61,11.4,5.32,23.27,9.43,35.16,13.43,3.45,1.16,7.41,1.94,10.7-2.05-4.56-2.73-9.02-5.5-13.57-8.1-5.09-2.9-9.18-6.26-11.21-10.61-1.82-3.91-5.12-6.4-8.62-7.63-5.19-1.82-10.87-3.13-16.33-3.09-11.06,.07-22.14-1.27-33.24,1.08-3.71,.79-7.72,1.29-11.6,1.86-1.12,.16-2.1,1.28-3.22,1.43-7.09,.99-10.23,2.42-16.69,8.11,1.16,.94,2.18,1.91,3.35,2.66,2.13,1.36,4.48,1.62,7.03,1.66,2.61,.04,5.2,1.21,7.82,1.38,7.29,.46,12.87,3.31,15.85,10.22-3.35,6.3-8.15,8.98-14.49,11.27-5.81,2.1-11.75,3.82-17.69,5.52-4.82,1.39-9.67,3.11-14.61,3.6-7.65,.76-15.2-.31-22.71-2.47-4.01-1.15-8.61-.69-12.89-.31-1.96,.17-3.86,1.78-5.64,2.95-8.37,5.49-16.64,11.25-23.99,17.96-7.62,6.95-15.03,14.19-21.52,22.41-5.48,6.94-11.64,13.23-16.32,20.91-3.77,6.18-9.24,11.31-12.91,17.72-2.04,3.56-4.57,6.85-7.03,10.14-2.6,3.48-3.99,7.59-6.39,11.21-2.33,3.51-3.53,7.75-5.61,11.46-2.11,3.77-4.54,7.39-7.11,10.87-2.59,3.5-3.14,8.26-6.94,10.97-.35,.25-.62,.79-.68,1.23-.64,4.91-4.05,8.57-5.8,12.96-1.75,4.4-3.15,8.96-4.37,13.54-1.71,6.44-4.92,12.68-3.23,19.94Zm944.25-138.35c3.1,3.92,8.17,5.59,10.37,10.32,1.3,2.8,3.46,5.21,4.78,8.01,2.52,5.38,6.25,10.14,8.18,15.8,1.23,3.6,2.61,7.22,3.19,10.94,.74,4.78,3.29,9.39,3.13,13.95-.21,5.93,3.3,8.96,7.27,9.76,6.18,1.24,10.85,4.9,16.21,7.41,3.98,1.87,7.54,4.41,10.75,7.5,2.66,2.56,5.1,5.27,8.41,7.33,3.19,1.99,5.24,5.84,7.74,8.91,2.8,3.43,5.91,6.69,8.25,10.42,5.64,9.01,11.55,17.83,17.94,26.31,1.88,2.49,4.04,5.16,7.87,6.61,.16-1.6,.61-2.85,.34-3.9-1.4-5.36-2.63-10.72-3.58-16.2-.76-4.39-3.05-8.51-3.95-12.9-.98-4.77-3.66-8.79-5.44-13.13-3.6-8.77-9.49-16.48-13.95-24.92-4.25-8.02-9.46-15.52-13.99-23.4-3.94-6.87-6.89-14.28-12.47-20.2-2.61-2.78-4.49-6.27-6.58-9.52-6.2-9.64-13.83-18.07-21.65-26.4-3.49-3.72-6.62-7.68-10.8-10.78-1.85-1.37-4.35-2.7-4.53-5.76-.05-.76-1.23-1.68-2.09-2.14-8.72-4.62-15.38-12.01-23.53-17.39-2.21-1.46-4.38-3.17-7.33-2.7-3.12,.51-6.23,1.06-9.36,1.53-4.11,.62-8.29,.89-12.32,1.82-7.04,1.62-8.11,1.03-15.06,.11-5.13-.67-9.62-3.06-14.74-3.73-3.86-.5-8.25-1.21-11.64-3.19-5.25-3.07-9.89-7.18-14.47-10.6,0-2.47,0-4.26,0-6.05,0-.24,.07-.48,.13-.89,.82-.29,1.83-.43,2.58-.95,4.2-2.92,7.55-4.27,12.12-4.11,5.99,.22,11.39-2.17,17.01-3.56,.94-.23,1.58-1.71,2.92-3.25-2.24-1.94-4-4.77-6.08-5.01-5.21-.62-8.81-4.68-14.05-5.39-3.36-.45-7.16-.23-10.06-1.5-4.27-1.86-8.57-.25-12.49-1.45-4.43-1.36-8.8-1.26-13.25-1.39-5.75-.17-11.21,2.67-17.04,1.55-2.25,1.89-6.31,.51-7.92,4.69,2.51,1.02,4.92,2.03,7.35,2.98,5.98,2.35,12.32,3.76,17.33,8.36,3.18,2.93,7.12,5.05,10.68,7.5,0,3.75-.77,7.55,.21,10.83,.99,3.32,3.43,6.36,5.74,9.09,4.88,5.74,10.08,11.21,15.17,16.78,1.04,1.13,2.38,2.03,3.22,3.29,6.21,9.25,14.6,16.14,23.58,22.52,5.28,3.75,10.83,7.37,13.19,14.06,1.39,3.93,3.99,7.23,7,10.15,.91,.88,2.11,1.69,2.54,2.78,3.35,8.35,9.8,14.77,13.98,22.61,1.72,3.23,4.68,5.2,9.14,3.54,0-1.84,.65-4.14-.12-5.78-2.78-5.91-4.12-12.19-5.4-18.48-.82-4.03-2.63-7.87-2.21-12.17,.35-3.51,2.12-6.54,4.16-8.91,1.16-1.35,4.18-2.22,6.84-1.79,2,.32,4.09,.06,6.77,.06Zm76.82,239.48c1.58,1.58,3.3,2.85,4.41,4.52,1.15,1.74,2.93,4.63,2.28,5.7-1.88,3.07-.68,6.34-1.67,9.33-1.41,4.27-2.4,8.76-4.37,12.75-2.01,4.07-4.78,7.83-7.64,11.39-2,2.49-1.67,4.01,.18,6.44,5.27,6.93,8.14,14.76,7.63,23.67-.23,4.08-.31,8.2,.04,12.26,.34,4.08,1.3,8.11,1.99,12.2,1.58-.49,3.44,1.18,4.26-1.87,.71-2.65,3.08-4.82,4.4-7.36,3.95-7.58,7.28-15.36,9.53-23.7,.89-3.27,2.32-6.69,3.42-10.04,1.12-3.4,1.61-7,2.46-10.49,.93-3.83,2.27-7.65,1.48-11.63-.77-3.88,1.8-7.18,1.56-10.87-.41-6.44-.35-13.02-1.8-19.24-.67-2.88-.19-6.12-1.53-8.49-2.29-4.03-3.28-8.38-4.79-12.61-1.8-5.04-6.64-8.36-12.71-9.64-1.6-.34-3.24-.9-4.66-1.7-11.34-6.43-22.2-13.53-31.02-23.3-1.28-1.42-2.61-3.03-3.21-4.79-1.71-5.07,2.83-9.62,7.21-8.51,4.15,1.05,8.39,2,12.27,3.71,2.32,1.02,4.18,.79,6.57,.49-3.1-10.18-12.05-14.58-19.58-19.23-7.35-4.54-15.49-9.17-25.24-9.69,.16,3.4-.58,6.59,.58,8.78,3.62,6.85,4.81,14.39,7.26,21.56,1.94,5.67,3.39,11.41,4.74,17.24,1.28,5.53,2.03,11.32,4.49,16.51,2.84,5.99,3.02,12.25,3.12,18.69,.1,6.7,.51,13.45,1.66,20.03,.45,2.58,1.04,5.18,1.47,7.81,.21,1.31,1.95,2.37,3.55,4.16,2.13-3.92,3.75-7.08,5.55-10.14,2.76-4.72,3.04-10.98,9.08-13.95h7.04Zm-999.16,95.15c.71-1.33,1.45-2.32,1.78-3.43,.35-1.16,.4-2.43,.42-3.66,.11-6.47-.17-12.9,1.41-19.34,1.17-4.74,4.61-15.83,8.08-18.86,3.39-2.96,3.31-5.69,1.27-9-1.14-1.85-2.42-3.61-3.68-5.39-5.91-8.36-8.95-17.62-8.59-27.9,.13-3.72,2.21-6.55,5-8.63,3.53-2.63,8.49-2.05,11.45,1.53,2.1,2.53,4.21,5.55,4.85,8.65,.72,3.5,2.73,4.91,5.48,6.79,.96-1.6,1.87-2.75,2.39-4.04,2.24-5.48,2.18-11.47,2.81-17.16,.63-5.63,1.08-11.34,1.89-16.97,.41-2.82,1.14-5.64,2.16-8.3,4-10.43,5.77-21.56,10.09-31.88,3.38-8.08,4.69-16.91,9.14-24.62,.5-.86-.07-2.33-.14-3.42-3.75-.33-7.44-.67-9.69,1.62-2.71,2.76-6.11,4.11-9.26,5.68-5.42,2.69-9.59,7.15-15.22,9.57-2.84,1.22-4.81,4.47-6.83,6.46v5.89c7.68-1.12,14.37-5.49,22.03-4.69,.75,1.25,2.02,2.46,2.08,3.72,.07,1.54-.61,3.27-1.42,4.66-2.71,4.65-11.06,12.05-16.59,15.14-1.68,.94-3.5,1.89-4.76,3.28-4.75,5.24-11.08,7.81-17.46,9.79-4.37,1.35-7.6,3.78-10.06,7.07-2.23,2.98-3.86,6.52-4.85,10.23-.8,3-.91,6.41-2.48,8.92-2.58,4.13-2.62,8.83-3.39,13.14-1.1,6.2-.07,12.74-.34,19.13-.27,6.28,2.72,12.23,1.63,18.55-.07,.38,.39,.84,.56,1.28,2.6,6.71,3.63,13.83,5.49,20.74,1.09,4.05,5.37,13.76,8.03,17.42,.79,1.09,1.12,2.68,1.21,4.07,.22,3.34,2.16,4.22,5.52,3.97ZM1042.53,231.17c.06,5.11-5.03,19.29-6.96,23.98-1.8,4.37-4.7,8.1-5.75,13.01-1.06,4.96-3.62,9.81-6.37,14.16-3.89,6.16-8.62,11.78-12.89,17.7-2.11,2.92-4.61,5.78-5.86,9.07-2.61,6.85-4.72,13.87-8.2,20.39-1.33,2.5,.16,5.79,2.82,7.82,2.91,2.22,4.84,2.13,7.67,.87,2.17-.97,2.74-3.13,2.9-4.47,.49-4.06,3.02-7.04,5.58-9.14,5.89-4.82,12.19-8.92,19.82-11.37,6.69-2.15,13.58-4.03,20.15-6.92,3.93-1.73,8.32-4,13.13-3.52,7.77,.79,15.29-1.22,23.39-2-.5-2.14-.34-4.55-1.47-5.79-5.01-5.46-10.21-10.78-15.7-15.76-5.27-4.79-6.49-6.36-7.85-12.77-.59-2.78-1.2-5.65-2.37-8.21-4.16-9.12-9.53-17.48-16.82-24.46-1.12-1.07-2.89-1.48-5.21-2.61Zm-187.56,582.4c-1.62-2.43-4.23-3.4-7.05-4.23-8.67-2.54-17.19-5.77-26.5-4.59-.76,.1-1.79,.33-2.26-.04-3.38-2.67-7.49-.44-10.87-1.63-3.91-1.37-7.76-1.52-11.7-1.35-8.75,.37-17.48-.63-26.28,1.29-7.24,1.58-14.89-.58-22.41,1.53-4.27,1.2-9.2,.61-13.75,.11-4.87-.54-9.22,1.71-13.96,1.73-3.28,.01-6.26-1.09-9.36-1.48-5.14-.64-10.29-.31-15.52-1.44-5.13-1.11-10.7-.04-16.07-.3-5.43-.26-10.86-.79-16.25-1.52-7.1-.96-13.85,1.82-20.87,1.61-5.11-.16-10.25-.23-15.35,.03-5.17,.26-10.39,.65-15.47,1.59-3.57,.66-6.96,2.35-10.5,3.6,1.82,4.4,5.12,7.22,8.33,5.21,3.24-2.04,7.29,.7,9.67-2.75,3.84,0,7.7,.27,11.5-.1,3.38-.33,6.57-1.58,10.12-1.6,3.56-.02,6.76,1.56,10.11,1.58,7.77,.04,15.34,2.68,23.16,1.66,.72-.09,1.56-.08,2.2,.22,5,2.3,10.3,2.55,15.7,3.04,4.05,.36,8.38,.63,12.15,2.03,2.33,.86,4.63-.04,6.5,.94,2.08,1.1,4.08,1.48,6.33,1.44,4.09-.06,8.2,.13,12.28-.07,2.89-.14,5.65-.1,8.68-1.19,4.5-1.63,9.7-1.36,14.61-1.81,4.16-.38,8.1-2.43,12.41-1.55,3.02-2.83,7.02-.39,10.04-1.7,3.68-1.59,7.27-1.33,10.95-1.35,12.54-.06,25.08-.14,37.62,.05,3.89,.06,7.77,.91,11.64,1.5,.66,.1,1.21,.94,1.86,1.01,4.61,.5,8.92,2.67,13.77,2.12,2.34-.27,3.73-1.02,4.51-3.57Zm384.22-420.76c-.11-.96,.03-1.64-.24-1.91-5.84-5.9-11.95-11.55-16.79-18.36-4.89-6.89-12.55-10.6-19.02-15.43-10.36-7.73-22.38-3.99-26.9,6.42-1.53,3.51-3.55,6.3-6.11,8.98-3.84,4.01-4.15,7.29-1.71,12.57,1.09,2.36,2.16,4.73,3.07,7.16,2.1,5.64,6.26,7.64,12.03,7.28,2.5-.15,5.45-.63,7.46,.43,6.53,3.46,13.6,6.06,19.18,11.19,1.41,1.29,3.06,2.42,4.79,3.23,2.95,1.38,5.53-.2,5.74-3.38,.13-2.03,.02-4.09,.02-6.16,3.24-3.23,6.18-6.92,9.87-9.56,2.32-1.65,5.78-1.71,8.63-2.46Zm-1006.36-4.15c1.78,1.3,2.91,2.59,4.33,3.08,8.88,3.1,13.15,8.2,13.4,16.89,.06,2.05,.66,3.63,2.25,4.38,1.56,.74,3.08,.18,4.72-1.06,5.13-3.91,10.34-7.74,16.32-10.42,4.68-2.1,9.13-4.67,14.18-3.54,8-6.13,10.93-14.95,14.36-23.43,.47-1.17,.35-2.9-.16-4.09-2.53-5.85-6.24-11.05-10.87-15.31-2.5-2.3-6.16-4.25-9.45-4.53-2.99-.25-6.84,1.22-9.16,3.24-6.16,5.35-13.82,8.89-18.92,15.51-.93,1.2-1.97,2.5-3.26,3.21-7.03,3.83-11.19,10.64-17.74,16.05Zm219.05-37.18c-2.26,2.26-4.8,3.51-4.59,6.99,.11,1.73-1.09,3.58-1.82,5.32-3.79,9.17-8.73,17.83-12.01,27.25-2.09,6.01-5.53,11.56-7.45,17.61-3.3,10.4-7.6,20.42-11.73,30.44-3.96,9.61-7.92,19.22-11.86,28.84-4.93,12.03-9.85,24.05-14.43,36.21-4.83,12.84-9.48,25.74-14.11,38.65-1.76,4.9-3.11,9.96-4.89,14.85-2.67,7.34-5.09,14.82-7.3,22.25-2.71,9.1-7.31,17.71-8.04,27.39-2.88,3.51-2.65,8.09-4.11,12.1-2.85,7.84-7.06,15.35-6.65,24.1-2.57,2.8-.58,5.19,.67,7.66,.5,.03,1,.11,1.5,.08,4.56-.28,5.13-.84,5.54-5.03,.14-1.43,.37-2.9,.87-4.24,.84-2.23,2.46-4.11,2.23-6.77-.21-2.43,1.28-4.57,1.69-7,1.03-6.07,2.5-12.21,4.88-17.87,2.22-5.27,3.69-10.82,5.35-16.16,2.54-8.15,5.14-16.32,7.52-24.54,2.5-8.65,6.93-16.55,8.88-25.51,1.95-8.97,5.31-17.7,8.62-26.31,3.39-8.81,7.47-17.36,11.25-26.02,2.65-6.07,4.57-12.44,6.81-18.64,1.94-5.34,3.81-10.68,6.15-15.88,2.14-4.74,4.57-9.49,6.2-14.29,4.26-12.56,9.99-24.58,13.41-37.43,1.78-6.68,4.36-13.04,8.12-18.88-.19-5.32,4.3-8.85,5.17-14.04,.83-4.95,4-9.52,6.24-14.22,1.6-3.37,1.64-3.34-2.1-6.93Zm749.06,214.47c-.61,8.52-1.19,16.72-1.79,24.93-.04,.49-.02,1.01-.2,1.45-2.35,5.55-2.51,11.64-4.33,17.34-2.09,6.57-3.29,13.42-5.42,19.97-4.84,14.82-9.84,29.6-15.26,44.22-.82,2.21-.77,3.1,.69,4.3,1.95,1.6,4.42,1.23,5.07-.77,1.38-4.23,5.26-6.31,7.47-9.88,3.27-5.29,7.38-10.17,10.51-15.62,2.39-4.16,5.83-7.57,7.72-12.11,2.17-5.23,5.9-9.96,7.24-15.34,1.45-5.8,6.44-10.52,5.16-17.08-.05-.28,.78-.65,1.01-1.08,3.04-5.54,.35-12.18,3.39-17.74,.11-.2,.13-.62,0-.74-2.81-2.75-.73-6.31-1.59-9.31-1.32-4.58-2.25-9.37-6.29-12.73-2.33-1.94-4.57-3.51-7.75-3.58-3.09-.07-4.09,2.49-5.63,3.79Zm-882.69,133.09c-.42,7.42,2.27,13.65,6.19,18.6,4.42,5.58,5.86,12.71,10.76,17.82,1.24,6.38,5.24,11.59,7.48,17.57,3.29,8.77,8.93,16.27,14.06,24.02,1.32,1.99,5.06,3.77,6.6,3.12,2.51-1.04,2.45-3.25,2.68-5.61,.91-9.33-1.77-18.42-1.62-27.68,0-.26,.11-.62-.02-.75-2.41-2.53-1.17-5.68-1.55-8.56-.38-2.87-1.41-5.7-1.41-8.55,0-4.28-1.38-8.07-3.21-11.72-5.8-11.52-16.42-17.91-26.84-24.36-1.32-.82-3.78-.9-5.64,.67-2.43,2.04-5.14,3.75-7.49,5.43Zm431.78,161.53c-2.7-1.67-6.76-1.61-7.67-5.93,.82-.73,1.46-1.67,2.34-2.05,7.39-3.21,14.89-6.12,22.78-7.92,4.58-1.04,9.13-2.22,13.56-3.31-.36-7.09-.61-7.38-6.19-7.42-4.85-.03-9.71,0-14.57,0-2.56,0-6.12-1.06-7.46,.22-2.87,2.72-6.19,.5-9.23,2.15-2.78,1.51-6.88,.65-10.4,.68-6.89,.06-13.78,.02-20.67,.02,.38,.41,.77,.83,1.15,1.24-1.89,.88-3.78,1.76-6.46,3.01,4.2,3.08,5.68,7.47,10.85,6.58,.67-.12,1.74,.88,2.33,1.61,2.75,3.4,5.18,6.97,5.27,11.59,.03,1.51-.5,3.57,.27,4.42,2.09,2.29,.84,4.82,1.27,7.19,.47,2.6,1.2,5.17,1.49,7.79,.53,4.84,.83,9.7,1.24,14.71h5.9c2.56-2.56,5.42-4.89,6.01-8.96,.26-1.79,1.2-3.66,2.34-5.1,1.14-1.44,2.9-2.38,4.81-3.87-.38-1.48-.73-3.38-1.37-5.18-.62-1.76-.97-3.4,.72-4.69,2.41-1.84,2.14-4.27,1.69-6.78Zm338.44-83.83c3.31,1.12,5.07-.35,6.41-2.23,4.33-6.06,9.27-11.67,12.11-18.76,2.19-5.48,4.58-10.99,7.72-15.96,5.87-9.28,10.77-19.07,16.14-28.61,2.25-3.99,2.35-7.99,2.08-12.14-.08-1.15-1.59-3.05-2.57-3.13-3.89-.32-7.99-.75-11.26,2.28-1.31,1.21-2.37,3.14-3.88,3.57-3.26,.93-4.48,3.94-6.9,5.63-2.52,1.77-4.75,3.82-6.41,6.43-4.25,6.68-9.03,13.16-8.83,21.66-2.71,3.17-.33,7.46-2.16,10.59-1.34,2.29-.03,4.66-1.03,6.48-1.15,2.09-1.44,4.1-1.43,6.33,.03,5.86,0,11.73,0,17.85Zm-811.86-107.78c.33-5.97,.67-10.45-2.91-14-1.05-7.14-5.07-13.63-4.61-21.11-3.76-7.67-3.77-16.28-5.92-24.37-1.73-6.5-2.02-13.44-3.13-20.17-1.33-8.1-1.35-16.41-1.9-24.11-1.39-1.76-2.63-3.32-3.99-5.05-2.21,1.37-4.87,2.08-5.7,3.71-3.13,6.11-7.22,11.93-7.06,19.32,.2,9.14,.08,18.12,2.84,27.19,2.77,9.11,5.36,18.2,9.51,26.78,1.96,4.06,4,8.1,6.34,11.94,3.63,5.95,7.44,11.79,11.46,17.49,.8,1.13,2.85,1.39,5.07,2.38Zm216.48,253.4c.59,1.47,.75,3.47,1.7,3.98,3.62,1.93,5.89,5.39,9.11,7.59,7.24,4.95,11.88,6.23,20.25,2.29,7.74-3.64,10.66-10.88,13.91-17.86,1.38-2.98,2.7-6.2,3.02-9.42,.75-7.61-2.81-13.83-6.89-20.06-3.6-5.51-8.24-7.24-14.52-7.37,0,4.6-.16,8.66,.04,12.7,.29,6.09-3.42,10.84-5.3,16.19-.49,1.4-2.39,2.53-3.88,3.31-5.44,2.84-10.99,5.47-17.44,8.64Zm443.31-37.8c-5.66,.23-7.99,1.18-10.87,3.85-6.03,5.6-6.52,13.23-7.69,20.62-.04,.25-.05,.52,0,.77,1.07,4.82,8.16,19.71,11.32,23.71,2.68,3.4,6.73,4.66,10.47,6.25,1.14,.48,3.02,0,4.24-.65,4.62-2.45,11.33-9.09,15.85-15.44-6.77-4.17-14.45-7.18-18.88-14.44-4.58-7.52-5-15.72-4.45-24.66Zm231.85-151.58c3.08-2.35,4.75-3.71,6.51-4.96,3.62-2.56,7.67-4.65,10.34-8.31,1.82-2.5,3.85-5.13,4.63-8.01,.55-2.06-.21-5.04-1.47-6.88-2.06-3.03-1.96-7.66-6.94-9.55-.17,2.83-2.62,4.03-.98,7.84,1.82,4.21,.66,9.67-4.63,13.3-2.33-2.99-3.96-6.28-6.6-8.15-2.99-2.12-.72-7.53-5.95-7.92-4.64,3.32-5.83,9.04-8.54,13.76-1.46,2.53-2.33,4.91-.65,8.18,1.93,3.76,.41,9.08-2.44,10.24-4.59,1.86-7.55,5.45-10.11,7.92-2.13,6.46,.48,9.33,5.67,10.64,1.11,.28,2.08,1.09,2.98,1.58,2.86-1.08,3.45-3.2,2.93-5.59-.6-2.8,1.27-4.15,2.86-5.75,2.73-2.74,6.58-3.64,9.59-2.34,3.75,1.62,7.33,1,10.98,1.27,.39,.03,.81-.47,1.21-.73v-3.07c-2.61-.96-5.22-1.93-9.39-3.47Zm-893.13-42.46c-1.76,1.76-3.21,3.12-4.57,4.58-3.32,3.57-2.97,8.47-4.53,12.68,2.15,5.31,3.7,10.92,9.24,14.14,3.16,1.83,6.66,3.78,6.1,8.45q-6.18,1.65-5.3,6.84c6.14,0,12.28,0,18.42,0,3.27,3.37,3.2,3.38,3.89,8.37,.16,1.11,.72,2.63,1.58,3.1,3.9,2.13,9.93,.9,10.71-5,.74-5.6-2.04-9.6-5.84-12.89-3.03-2.62-4.29-6.06-4.83-9.51-1.02-6.57-3.28-12.2-9.2-16.66-1.93,.56-4.48,.8-6.45,2.01-1.8,1.11-2.97,3.25-4.65,5.2-1.29-1.47-2.74-2.36-2.78-3.3-.11-2.7,.38-5.41,.6-8.12,.2-2.4,.61-4.83,.41-7.21-.07-.87-1.63-1.62-2.8-2.68Zm765.86,193.82c-3.94-3.67-4.31-3.63-7.31-1.08-4.47,3.79-7.75,8.67-12.25,12.51-6.49,5.53-12.11,12.04-18.96,17.25-6.29,4.79-11.66,10.7-18.26,15.16-3.55,2.4-6.14,6.45-7.62,10.6-.87,2.44-1.87,4.85-2.67,7.32-.42,1.3-.55,2.69-.86,4.32h7.28c4.05-4.24,9.18-7.84,10.71-13.9,1.2-4.73,5.23-7.43,7.28-11.54,1.31-2.63,4.46-3.66,7.62-3.54,3.17,.12,5.14,2.71,3.94,5.53-.83,1.94-2.1,3.7-3.08,5.38,1.17,1.83,2.11,3.32,3.04,4.77,7.91-4.6,9.47-12.46,10.69-19.52,1.18-6.85,4.35-12.57,6.87-18.69,.81-1.98,2.99-2.58,5.15-1.84,1.03,.35,1.94,1.03,2.54,1.36,5.69-3.69,2.85-10.02,5.91-14.09Zm-370.76,61.66c4.43,0,8.24,.02,12.04,0,3.95-.03,7.8-.68,11.7-1.25,7.61-1.12,15.39-.54,23.17-1.58,14.85-1.98,29.73,1.96,44.67,1.31,.51-.02,1.28-.22,1.5,.03,2.48,2.91,5.76,1.23,8.63,1.41,3.3,.21,3.8-.66,4.48-5.22-4.12-3.27-9.25-3.69-14.08-4.86-5.61-1.36-11.28-3.42-16.94-3.45-14.39-.08-28.86-1.51-43.16,1.36-1.86,.37-3.65,1.17-5.52,1.47-1.97,.32-4.07-.01-5.97,.47-5.32,1.34-10.63,2.76-15.94,4.12-3.64,.93-3.78,.75-4.58,6.2Zm-74.78-81.57c-.89-.96-1.38-1.53-1.92-2.05-4.02-3.92-6.58-8.19-6.4-14.31,.12-4.12-1.34-8.46-3.37-12.3-.93-1.75-2.84-2.45-4.53-1.72-1.14,.49-2.27,2.01-2.53,3.26-.42,1.95-.84,4.45,.01,6.04,3.85,7.17,4.04,15.24,5.81,22.86,2.28,9.81,4.45,19.68,6.4,29.58,1.81,9.16,4.03,18.26,6.32,27.3,1.24,4.91,2.82,10.18,6.93,13.98,1.75,1.62,3.33,1.87,5.45,.22-.86-1.69-1.55-3.49-2.6-5.04-3.05-4.49-3.18-9.03-.28-13.53,1.67-2.59,1.31-5.13,.51-7.78-1.48-4.86-4.2-9.15-7.15-13.1-5.42-7.25-7.25-15.49-4.65-24.45,.88-3.01,1.38-6.13,1.99-8.94Zm34.75-218.15c-2.42-2.61-5.28-2.77-8.31-2.75-12.78,.09-25.57,.04-38.36,.04-1.53,0-3.62-.64-4.5,.12-3.23,2.78-6.85,.81-10.21,1.39-3.6,.63-7.3,1.72-10.85,1.42-7.61-.64-14.87,1.98-22.39,1.67-2.51,2.1-7.66,.34-8.27,5.23,1.48,.92,2.72,2.38,3.9,2.32,6.78-.33,13.27,2.94,20.07,1.61,2.6-.51,5-1.54,7.81-1.6,7.21-.17,14.41-.91,21.61-1.42,.25-.02,.6,.11,.75-.02,2.82-2.37,6.2-1.18,9.35-1.55,3.38-.39,6.73-1.34,10.11-1.44,9.74-.29,19.54,.65,29.3-2.22v-2.81Zm242.53,184.52c-.98,.13-1.81,.06-1.9,.27-3.33,8.84-6.49,17.74-9.91,26.55-1.19,3.07-1.55,6.11-1.52,9.34,.09,10.21,.03,20.43,.03,31.33-3.18,1.96-6.6,4.21-10.15,6.24-4.26,2.44-5.22,5.36-2.03,8.44,2.57,2.48,3.74,5.62,5.3,8.58,1.53,2.9,1,4.64-1.98,5.96-3.02,1.33-6.42,1.82-9.4,3.21-3.87,1.81-8.96,2.49-9.44,8.65,1.09,.62,2.26,1.68,3.58,1.96,5.22,1.11,9.22-2.05,13.67-3.94,4.3-1.83,6.04-5.11,7.42-9.14,2.68-7.85,3.35-16.11,4.26-24.19,.55-4.88,2.24-9.66,1.84-14.65,3.11-2.63,1.1-6.49,2.33-9.75,2.01-5.33,2.74-11.16,3.76-16.83,.42-2.38-.06-4.72,1.44-7.11,1.18-1.89-.91-5.01,1.5-7.01-.12-5.87,3.21-11.49,1.18-17.91Zm266.52-506.34c-.56,4.02,.46,8.15,3.03,11.99,2.67,3.98,5.09,8.11,7.73,12.11,1.8,2.73,6.13,4.56,8.58,3.01,4.08-2.58,8.63-3.9,12.94-5.85,1.08-.49,1.99-1.39,2.94-2.16,2.09-1.71,2.35-3.59,.63-5.79-1.03-1.31-1.59-3.06-2.78-4.17-2.33-2.17-5.1-3.86-7.42-6.04-5.64-5.3-12.68-7.51-19.9-9.7-1.76,2.03-3.42,3.93-5.74,6.6Zm-305.94,579.04c1.46-1.37,2.99-3.13,4.85-4.43,1.1-.77,2.76-.69,4.1-1.18,2.91-1.06,4.53-3.33,4.84-6.27,.66-6.16,1.06-12.35,1.59-18.53,.12-1.43,.69-2.96,.84-4.18,.66-5.47,3.62-10.79,1.72-16.62-5.67,4.2-7.11,10.65-8.48,16.5-1.91,8.15-5.68,14.36-12.6,18.9-9.61,6.31-12.01,15.35-6.04,23.62,2.84,3.93,6.7,6.42,12.06,5.26-1.02-2.57-2.2-4.86-2.81-7.3-.43-1.68-.08-3.56-.08-5.76Zm-110.89-187.34c1.97,1.78,3.15,5.03,6.5,4.09,3.25-.92,6.25-2.64,7.14-6.42,.17-.7,.17-1.46,.42-2.12,3.83-10.39,6.21-21.36,12.25-30.88,.74-1.17,1.16-2.59,1.55-3.94,2.25-7.72,5.61-15.03,8.23-22.59,1.12-3.24,3.87-6.76,1.72-11.36-1.33,.99-2.75,1.49-3.14,2.42-3.03,7.28-8.5,13.16-11.51,20.48-2.68,6.54-5.73,12.97-9.23,19.11-2.52,4.43-2.75,9.53-5.2,13.93-3.1,5.56-5.77,11.37-8.73,17.29Zm-102.3,221.18c3.92-1.55,5.06-3.82,3.92-5.94-2.61-4.86-1.31-9.94-1.07-14.79,.14-2.71,1.84-4.91,.16-8.15-1.25-2.42-1.44-5.27-3.23-7.91-1.71-2.53-3.78-4.56-5.74-6.74-2.83-3.15-4.44-6.84-5.26-10.87-.72-3.58-.38-7.53-1.78-10.77-1.28-2.96-1.54-5.77-1.26-8.65,.77-7.96-4.16-12.09-10.71-16.86,.25,3.4-.91,5.53,1.15,7.91,1.84,2.13,2.56,5.3,4.53,7.23,2.69,2.64,2.54,5.81,1.54,8.34-1.78,4.48-.86,8.29,.07,12.74,.99,4.72,2.55,8.79,5.56,12.32,5.36,6.3,6.91,13.67,4.87,21.29-1.78,6.65-1.23,12.04,3.93,16.78,1.29,1.19,2.24,2.73,3.32,4.08Zm-20.72-269.95c2.34,1.9,3.86,4.07,6.83,3.92,2.11-.1,4.17-.19,6.47,1.04,2.09,1.12,5.63,.78,7.99-.2,1.76-.73,3.37-.51,4.98-.97,3.41-.96,6.16,1.56,9.35,1.57,7.16,.01,14.34-.31,21.48,.09,7.21,.41,14.61-1.83,21.62,1.45,3.09-2.83,7.24-.61,11.19-2.26-.97-1.38-1.55-3.17-2.61-3.54-4.05-1.39-8.31-3.38-12.39-3.19-8.11,.38-15.9-1.95-23.93-1.79-7.16,.14-14.33,.26-21.48-.03-7.3-.3-14.27,2.41-21.63,1.76-2.53-.22-5.23,1.38-7.85,2.15Zm304.74,319.38c-2.88,2.25-5.41,4.11-7.81,6.13-1.33,1.12-2.6,1.84-4.39,2.4-7.74,2.42-14.7,6.6-21.42,11.1-2.51,1.68-2.54,3.88-.42,6.27,.68,.76,1.48,1.41,2.15,2.18,4.94,5.67,10.97,6.41,17.79,2.72,5.16-2.79,9.07-6.94,12.38-11.6,1.62-2.27,3.37-4.49,3.89-7.58,.67-3.94,2.08-7.69-2.18-11.61ZM330.58,324.94c.07-4.99-.88-6.67-3.5-6.76-1.91-.07-3.96,.17-5.74,.83-2.64,.98-5.34,2.12-7.58,3.77-5.13,3.78-11.72,5.48-14.85,12.14-2.41,5.11-2.28,7.38,2.93,9.31,2.42,.9,4.79,1.96,7.13,3.06,4.96,2.32,7.98,1.59,10.85-2.99,3.16-5.04,6.24-10.12,9.2-15.27,.93-1.61,1.35-3.52,1.56-4.09Zm252.92,693.11c4.18,.37,7.7,.03,10.69-2.85,3.33-3.21,3.69-5.26-.18-7.88-4.74-3.21-9.51-6.41-14.49-9.3-4.75-2.76-10.83-2.76-14.6-7.51-1.6-2.01-4.83-2.08-6.7-.86-1.33,.86-2.25,4.26-1.6,6.21,.15,.43,.87,.67,1.02,1.11,2.73,8.02,9.92,12.28,15.26,18.1,3.77,.66,6.62,4.59,10.61,2.98Zm470.69-110.48c1.37-3.5,3.51-6.1,4.55-9.33,5.25-16.3,5.5-14.12,5.11-26.25-.18-5.53-2.51-9.88-7.77-12.14-.66,.45-1.05,.75-1.46,.99-6.41,3.69-8.21,9.45-6.29,16.84,.9,3.46,2.35,6.93,1.81,10.83-.82,5.88-1.12,11.84-1.58,17.77-.03,.4,.42,.83,.67,1.3h4.97Zm-649.57-3.28c-1.01-3.93,1.36-7.87-1.68-11.17,.38-5.47-.99-10.98,.85-16.45,2.21-6.55-.31-12.47-5.82-14.61-3.64-1.41-5.45-.63-7.41,3.22-3.22,6.31-3.31,11.54-.27,18.28,.58,1.29,1.8,2.62,1.7,3.85-.4,5.04,3,8.53,4.79,12.64,1.21,2.77,3.12,5.26,7.84,4.25Zm841.96-459.25c2.15,.71,4.18,1.92,6.16,1.84,1.4-.05,2.66-2.6,4.1-2.73,2.83-.25,3.42-2.83,5.16-3.79,.99-6.95-.89-13-4.32-18.89-2.72-4.67-5.66-9.32-7.2-14.57-.91-3.11-3.34-4.9-5.51-6.85-1.35-1.21-3.15-1.04-4.65,.49-1.25,1.27-1.08,2.07-.38,3.78,1.52,3.72,2.7,7.56,5,10.92,3.2,4.68,3.13,10.4,4.86,15.55,.39,1.16-.51,2.77-.83,4.16-.76,3.26-1.54,6.51-2.39,10.09ZM200.66,491.62c1.35-1.35,3.63-2.57,3.69-3.88,.18-4.07,2.75-6.57,4.76-9.57,2.24-3.35,4.28-6.86,6.16-10.43,2.72-5.17,2.07-7.01-3.09-9.92-1.65-.93-3.26-1.99-5-2.69-3.26-1.31-7.95,.52-8.71,3.65-.85,3.53-1.4,7.18-1.55,10.81-.25,6.09-.07,12.19-.07,17.9,1.43,1.56,2.62,2.85,3.81,4.14Zm29.23-94.34c-2.92,1.37-5.26,3.59-6.6,5.93-5.52,9.64-11.2,19.25-14.75,29.89-.29,.86-1.01,2.09-.69,2.56,1.65,2.38,3.21,5.12,5.53,6.65,2.18,1.44,5.11,3.31,8.06,.87,0-4.87,.06-9.72-.02-14.57-.08-5.53,1.7-10.33,4.86-14.86,3.22-4.61,5.82-9.58,3.59-16.45Zm1035.92,94.17c1.54-.24,3.42,1.43,4.21-1.55,.48-1.82,1.42-3.43,1.48-5.5,.24-7.74-.24-15.4-1.62-23.01-.38-2.12-1.47-3.3-3.86-3.65-4.25-.62-7.34,2.06-10.84,3.43-1.04,.41-1.87,2.27-2.07,3.58-.15,.96,.9,2.1,1.41,3.16,3.77,7.85,7.53,15.7,11.29,23.54Zm-521.59,251.21c2.19-3.08,8.25-2.96,5.49-8.52-4.46,0-8.8,.11-13.13-.04-2.69-.1-4.23,.94-4.94,4.13,2.53,1.46,5.17,2.97,7.87,4.53-5.75,.86-4.5,5.43-4.6,9.19-3.09,1.13-5.79,2.36-4.27,6.33,6.88,3.11,14.28,2.79,19.45-.28,1.27-4.13-2.01-4.99-4.49-6.32q1.62-3.94-1.39-9.02Zm-293.3,170.65c-6.47-5.97-11.62-12.88-19.56-16.77-1.84,3.75-.67,6.97,.73,10.1,.87,1.94,2.75,3.71,2.91,5.65,.58,7.04,4.33,12.53,7.67,18.36,1.42,2.47,2.74,1.24,4.76,1.27,0-.97,.13-1.95-.03-2.88-.44-2.61-1.82-5.38-1.29-7.76,.58-2.64,2.86-4.91,4.8-7.99Zm475.04,38.97c-4.88-7.13-9.58-14.06-14.39-20.91-.39-.56-1.58-.57-2.44-.85-2.06,9.23,1.25,17.72,1.18,26.38,0,.96,1.75,2.55,2.9,2.78,2.2,.45,4.55,.13,7.38,.13,1.63-2.28,3.44-4.82,5.38-7.53Zm-385.52,7.53c.98,0,1.74,.02,2.51,0,5.09-.19,4.47-.4,6.11-5.27,2-5.93,1.02-11.82,1.34-17.73,.06-1.06-.34-2.14-.63-3.81-2.83,1.65-4.31,3.27-5.59,5.54-1.78,3.14-4.05,6.15-6.65,8.65-2.31,2.22-2.88,4.5-2.33,7.37,1.62,1.62,3.24,3.24,5.25,5.24Zm-75.78-34.01c-.12,1.2-.58,2.28-.26,3.05,2.47,6.1,5.53,11.96,10.69,16.17,2.46,2.01,5.65,4.05,9.56,1.48-3.56-9.66-9.42-17.05-19.99-20.7ZM906.99,206.72c-4.78-2.37-8.75-7.32-15.13-4.69v5.38c2.28,2.65,3.91,4.55,5.41,6.31q9.61,0,9.72-7Zm295.25,331.31c0,3.2,.03,6.01,0,8.82-.03,2.28,.09,4.24,2.08,6.09,2.26,2.11,4.41,1.78,7.15,1.05,0-3.72,.35-7.56-.15-11.28-.24-1.77-.72-3.85-2.94-5.22-2.33-1.44-3.79-.13-6.13,.54Zm-446.93,242.42h-24.89v4.35c6.93,0,13.73-.04,20.54,.02,2.52,.02,3.34-1.57,4.35-4.37ZM545.05,209.12q2.12-4.57,1.92-8.95c-5.62-1.16-9.11,1.79-12.25,5.77q3.1,3.18,10.33,3.18Zm280.28,462.84c3.12,1.45,5.64,2.73,8.76,2.37,2.75-.32,5.92,.73,8.23-.31,2.03-.91,5.93,.18,6.53-4.7-7.95,1.34-15.68-1.58-23.52,2.63Zm-90.23,96.92q4.99,4.7,12.08,1.24c.56-2.28-.26-4.54-2.22-5.05-3.78-.99-7.55-.56-9.86,3.81Zm-319.79,116.05c-.71,4.67-.31,8.49,4.53,10.5,3.24-1.14,3.85-4.14,2.81-6.59-1.08-2.56-3.22-5.19-7.34-3.9Zm311.9-208.68q-3.06-6.49-7.69-5.86c0,1.01,.11,2.04-.02,3.04-.28,2.19,.06,4.27,2.17,5.19,2.44,1.07,4.31-.12,5.53-2.38Z"/>
  <path class="cls-1" d="M773.75,155.68c-.67,4.77-.52,9.65-2.2,13.78-1.28,3.16-4.37,5.72-7.91,7.56-5.05,2.62-10,4.81-15.82,4.51-1.18-.06-2.37,.43-3.57,.6-2.18,.32-4.88,1.54-6.43,.69-3.17-1.74-6.32-1.47-9.44-1.22-2.72,.22-5.21-.79-6.75-2.17-2.63-2.35-6-3.15-8.67-5.22-.52-.4-1.58-.17-2.02-.61-6.9-6.83-14.29-13.27-20.41-20.74-3.94-4.81-7.34-10.26-11.27-15.12-2.36-2.91-3.81-6.17-5.71-9.22-6.19-9.91-12.04-20.04-17.94-30.13-.58-.99-.55-2.35-.84-3.74,2.27-.91,4.17-.65,6.43,.07,10.11,3.2,19.11,8.46,27.91,14.17,2,1.29,3.99,2.59,6.38,4.14,.95-1.22,1.7-2.2,2.51-3.25-1.27-5.28-5.18-8.47-9.78-10.96-4.17-2.26-8.6-4.08-12.6-6.6-3.68-2.32-7.52-4.38-11.65-5.18-4.28-.84-7.61-3.94-12.27-4.06-2.08-.06-5.94-1.2-5.98-5.42,12.5-1.8,23.75,.3,34.06,7.93,3.25,2.4,6.73,4.77,10.26,6.7,1.74,.96,1.36,2.31,2.37,3.12,3.88,3.13,6.49,7.59,11.24,9.9,1.72,.84,2.46,3.53,3.92,5.14,1.23,1.35,3.11,2.12,4.25,3.52,3.44,4.24,6.66,8.58,11.76,11.15,1.74,.88,2.93,2.81,4.39,4.24,2.46,2.42,4.8,4.86,8.14,6.29,2.4,1.03,4.38,3,6.58,4.5,3.79,2.57,7.42,5.46,11.47,7.53,3.97,2.03,8.41,3.14,12.59,4.78,2.2,.87,4.29,2.02,7.02,3.33Z"/>
  <path class="cls-1" d="M797.37,35.57c7.16,.2,11.31,5.1,17.64,6.45-.29-1.89-.02-3.65-.78-4.53-2.68-3.08-5.36-6.36-8.7-8.6-3.29-2.21-6.79-4.49-11.37-4.08-4.82,.43-9.79-.41-14.56,.26-3.63,.51-7.16,1.77-10.9,1.35-2.87-.32-5.72-.8-8.87-1.25v-7.44c4.75-6.22,11.83-9.33,19.76-7.99,10.31,1.74,20.8,3.31,30.42,7.98,4.25,2.06,8.76,3.6,12.98,5.71,2.36,1.18,4.4,3.01,6.53,4.62,5.22,3.95,6.73,9.75,5.02,15.35-1.23,4.04-1.19,7.84-1.13,11.72,.04,3.15-.9,5.77-2.51,8.2-3.74,5.63-6.88,11.67-11.44,16.74-.99,1.1-2.08,2.1-3.06,3.21-1.31,1.48-2.62,2.98-3.81,4.56-1,1.34-1.69,2.93-2.76,4.21-5.72,6.82-11.51,13.58-17.36,20.45-1.25-2.84-.69-5.17,.79-7.71,2.74-4.71,4.97-9.71,7.62-14.46,3.01-5.41,6.72-10.42,11.44-14.38,4.5-3.77,4.94-8.85,5.5-13.85,.44-3.96-.34-4.34-5.55-4.8-2.76,7.38-5.91,14.85-11.45,20.42-4.63,4.65-6.24,11.8-13.09,15.38-1.45-7.41,.37-13.36,4.54-18.75,4.22-5.46,7.78-11.13,7.27-18.49-.13-1.89,.1-3.64,1.19-5.64,1.72-3.17-1.19-6.43-1.81-9.72-.26-1.38-.83-2.69-1.54-4.92Z"/>
  <path class="cls-1" d="M814.82,95.52c2.97,0,5.3-.27,7.54,.08,2.08,.32,4.45,.81,5.99,2.07,3.34,2.75,6.85,5.67,9.1,9.26,1.5,2.39,3.31,4.29,5.13,6.26,3.09,3.35,6.27,11.35,6.09,15.91-.14,3.44-.82,4.07-4.22,4.83-6.74,1.51-13.46,2.99-19.77,6.04-4.63,2.23-8.97,4.7-12.72,8.26-3.05,2.9-6.42,5.47-9.65,8.17-3.04,2.54-5.95,5.28-9.19,7.52-2.31,1.6-5.07,2.54-8.12,4-1.1-1.46-2.31-3.05-3.75-4.96,1.56-3.44,2.24-7.76,.58-12.11-1.47-3.87-.91-6.76,2.04-10.07,4.5-5.06,7.65-11.32,12.21-16.3,4.52-4.94,7.83-10.5,11.1-16.18,2.52-4.38,5.18-8.67,7.64-12.78Z"/>
  <path class="cls-1" d="M751.81,10.65c-.34,6.26-.58,6.52-6.24,6.57-3.58,.03-7.21,.37-10.74-.07-6.12-.77-10.55,2.05-14.37,6.14-4.61,4.94-8.96,10.14-13.71,15.55-2.5-.74-4.9,.04-7.77-1.14-5.75-2.38-11.89,.54-13.97,5.63-.54,1.31-.86,2.85-.78,4.25,.3,5.43-.66,10.83,1.27,16.32,1.18,3.37,.22,7.5,.22,11.62-5.56,.38-10.26-1.74-15.04-3.07-8.28-2.3-9.24-3.49-12.1-12.45-2.02-6.33,.53-11.66,4.47-16.06,3.46-3.86,7.17-7.52,11.58-10.63,5.36-3.78,9.17-9.68,14.36-13.77,8.47-6.67,16.79-13.9,27.52-16.84,5.92-1.62,12.14-3.66,18.19-2.16,6.27,1.55,12.62,3.79,17.11,10.13Z"/>
  <path class="cls-1" d="M621.06,125.36c.47-5.5,3.7-8.69,8.09-11.52,5.19-3.35,11.16-4.06,16.77-5.93,3.6-1.19,5.09,.15,7.54,5.32,2.64,5.55,5.78,11,7.44,16.85,1.7,5.99,5.17,10.93,8.55,15.61,5.97,8.24,11.98,16.62,19.88,23.32,4.39,3.72,8.54,7.71,13.01,11.32,1.81,1.46,4.16,2.25,6.31,3.36,.45,5.02-4.48,4.17-6.72,5-4.26,1.58-9.14,1.78-13.78,1.93-7.77,.25-15.24-3.74-19.29-10.27-2.87-4.64-4.95-9.76-7.81-14.4-3.42-5.55-5.53-12.18-11.03-16.11-6.58-4.71-12.09-10.69-19.12-14.91-3.82-2.29-6.6-6.32-9.85-9.57Z"/>
  <path class="cls-1" d="M773.34,60.29c0,1.26,.11,1.61-.02,1.76-5.84,6.53-11.33,13.42-17.67,19.41-4.52,4.27-9.93,7.77-15.39,10.83-5.56,3.12-10.36,7.14-15.39,10.92-1.34,1-2.83,1.79-4.67,2.94-2.06-1.57-4.59-2.98-6.46-5.01-3.77-4.1-4.57-8.56-2.09-14.07,3.61-7.99,2.59-14.08-4.27-19.76-.53-.44-1.23-.77-1.9-.92-.71-.16-1.49-.04-2.22-.04-2.66,6.61,2.2,12.73,.63,19.68-.86,.07-2.55,.71-3.1,.18-1.68-1.62-3.61-3.51-4.16-5.63-1.04-3.99-1.45-8.2-1.61-12.34-.17-4.45-2.04-8.55-1.8-13.15,.21-3.89,.94-6.81,4.87-8.91,5.67,3.51,11.61,7.06,17.41,10.82,4.65,3.02,9.88,4.51,15.02,6.31,7.59,2.65,15.44,1.54,23.13,1.33,4.41-.12,9.01-1.59,13.05-3.46,2.36-1.09,4.2-.64,6.64-.88Z"/>
  <path class="cls-1" d="M573.49,101.28c0,1.66,.25,2.54-.04,3.17-2.93,6.44-5.64,13.01-9.08,19.16-1.68,3-5.14,4.3-8.9,4.18-5.65-.17-11.18-.22-16.48,2.74-3.09,1.73-9.54-2.79-10.08-6.4-.54-3.61-1.15-7.21-1.51-10.84-.34-3.41-3.92-5.67-3.18-9.4-3.23-2.42-1.13-5.11,.19-7.09,1.84-2.77,3.62-6.04,7.94-5.98,1.57,.02,3.39-.61,4.65-1.54,1.24-.92,1.86-2.65,2.88-3.92,.79-.99,1.77-1.84,2.69-2.72,6.13-5.85,11.83-5.23,17.38,1.53,1.68,2.05,4.02,3.64,6.25,5.17,4.55,3.13,6.18,7.81,7.3,11.93Z"/>
  <path class="cls-1" d="M956.09,97.05c.68,5.06-.37,8.8-3.43,12.2-1.94,2.15-2.86,4.99-2.57,8.11,.21,2.28,.26,4.62,0,6.88-.61,5.27-7.09,9.02-12.29,7.33-4.51-1.46-8.75-3.67-13.89-1-1.69,.88-5.16-.73-7.35-2-2.06-1.19-3.08-3.29-3.55-6.15-.87-5.32-1.47-10.98-4.68-15.61-2.77-3.99-1.07-7.62,.84-10.87,1.51-2.55,3.85-5.18,6.47-6.37,2.96-1.35,5.39-3.36,6.63-5.74,2.26-4.32,5.76-3.66,9.26-3.65,3.34,.02,6.42,1.07,7.78,4.37,1.57,3.81,3.89,5.65,8.14,6.62,3.3,.76,6.04,3.99,8.65,5.86Z"/>
  <path class="cls-1" d="M498.42,101.62c4.16,3.22,7.95,6.36,11.94,9.21,4.68,3.34,5.32,5.58,3.86,10.97-1.43,5.29-4.76,10.17-3.68,15.85-1.8,1.8-3.43,3.42-5.28,5.27-5.83,.18-11.7,1.31-17.52,3.15-4.75,1.5-9.93-2.92-11.09-8.78-.57-2.85,.51-5.68-1.13-8.75-1.26-2.37-.25-5.95-.25-9.43,2.21-1.65,3.89-4.35,7.08-5.76,2.08-.92,3.54-3.45,5.03-5.44,2.89-3.87,6.21-6.77,11.04-6.3Z"/>
  <path class="cls-1" d="M781.03,95.89c0,5.5,.29,10.86-.07,16.17-.47,6.79-3.62,12.75-6.74,18.66-2.9,5.5-7.65,8.07-13.54,7.84-3.41-.13-4.82-4.49-8.53-3.58-5.57-5.69-13.13-8.99-18.26-15.19-.29-.34-.35-.87-.52-1.31,5.84-6.94,5.94-6.71,15.86-10.76,7.67-3.13,14.95-7.08,23.02-9.39,2.59-.74,4.68-3.56,8.78-2.44Z"/>
  <path class="cls-1" d="M859.15,99.63c3.79-3.78,8.47-8.46,13.42-13.4,2.47,.12,5.2,.19,7.93,.41,3.61,.29,3.59,4.53,6.53,6,2.53,1.27,5.52,1.05,7.89,3.4,1.84,1.83,.43,4.11,1.99,5.37,2.69,2.15-.23,3.58-.74,5.05-.64,1.83-1.56,3.45-1.42,5.53,.18,2.79,.04,5.59,.04,8.77-1.77,1.38-3.76,2.93-6.83,5.32h-20.9c-.55-.69-2.76-2.19-2.85-3.81-.42-7.6-9.77-12.47-5.06-22.62Z"/>
  <path class="cls-1" d="M967.17,140.02c-.45-5.42-.39-9.76-1.38-14.25-1.34-6.07-.41-12.14,6.86-15.4,3.44-1.54,6.02-4.98,9.1-7.65,8.93,4.09,13.64,12.35,20.57,17.82,.09,3.16-.12,5.89-1.25,8.84-1.07,2.8-2.19,5.82-1.92,9.26,.35,4.39-3.11,7.36-7.6,7.51-5.73,.2-11.18-2.05-17.04-1.79-2.38,.1-4.9-2.81-7.35-4.35Z"/>
  <path class="cls-1" d="M589.18,124.24c-1.11-1.11-2.19-2.19-2.9-2.9-.75-7.55-1.46-14.68-2.11-21.22,1.91-5.06,7.28-4.29,10.19-7.52,2.48-2.76,6.19-4.41,9.36-6.56,4.1,2.16,8.11,3.83,9.85,8.45,.42,1.11,2.13,1.78,3.32,2.55,1.48,.96,2.74,1.86,2.81,3.97,.05,1.33,1.62,2.82,1.31,3.91-.69,2.45-1.53,5.55-3.38,6.84-2.92,2.03-1.8,5.66-4.17,7.57,.87,3.96-2.12,5-4.78,6.27-.63,.3-1.6,.81-1.99,.57-5.43-3.44-11.4-.24-17.51-1.93Z"/>
  <path class="cls-1" d="M429.99,113.71c5.39-5.37,10.25-10.21,14.78-14.72,6.94-2.12,11.9,2.24,17.38,4.45,2.49,1,5.04,7.52,3.48,9.66-1.63,2.23-1.25,4.28-1.21,6.39,.06,2.62-1.11,4.73-2.43,6.63-1.21,1.74-2.8,3.06-5.47,3.35-3.44,.38-6.95,1.64-10.02,3.29-1.72,.93-3.18,1.59-4.73,.75-1.85-1-4.11-2.16-4.97-3.87-2.54-5.02-4.47-10.34-6.81-15.94Z"/>
  <path class="cls-1" d="M1013.14,108.73c3.55-4.55,8.27-6.88,13.3-8.89,4.38-1.75,8.16-1.71,10.32,1.83,2.27,3.72,5.31,6.55,8.3,9.49,2.33,2.29,2.57,4.64,1.18,7.33-1.74,3.36-4.09,6.5-5.2,10.05-.82,2.6-2.55,3.06-4.33,4.27-2.32,1.58-3.69,.5-5.91-.16-3.41-1.01-6.69-3.02-10.11-3.18-4.63-.21-4.18-4.12-5.99-6.36,1.22-5.04-1.85-9.65-1.55-14.38Z"/>
  <path class="cls-1" d="M847.65,83.51c-2.57-3.28-5.13-6.29-7.4-9.5-3.5-4.95-3.14-9.91,.7-14.57,1.54-1.87,3.08-3.78,4.3-5.86,2.4-4.12,5.18-5.33,9.39-3.49,1.52,.66,2.8,1.83,4.26,2.63,1.02,.56,2.26,1.42,3.25,1.25,4.76-.82,5.83,3.53,6.23,5.82,.9,5.19,.57,10.66,.17,15.97-.22,2.93-2.73,5.22-5.42,5.79-5.01,1.07-10.19,1.33-15.47,1.95Z"/>
  <path class="cls-1" d="M630.05,49.37c4.04,1.16,6.24,3.87,8.01,7.07,.69,1.25,1.32,2.58,2.24,3.66,3.1,3.67,3.2,6.43,.46,10.5-1.59,2.37-2.79,5-4.39,7.36-1.98,2.91-4.85,4.97-8.34,3.61-2.88-1.13-5.72-1.06-8.61-1.49-4.97-.74-7.11-6-5.36-12.06,.47-1.61,1.01-3.35,.87-4.97-.42-4.86-.26-5.57,3.44-7.43,2.11-1.06,4.36-1.85,6.44-2.95,1.89-1,3.63-2.27,5.24-3.3Z"/>
  <path class="cls-1" d="M750.31,93.98c6.1-5.33,12.35-10.49,18.23-16.05,3.42-3.23,6.77-6.78,9.16-10.78,2.79-4.69,4.55-10.01,4.85-15.61,.14-2.55-.27-5.16,.14-7.66,.23-1.43,1.59-2.67,2.33-3.83,4.18,1.26,6.16,4.65,6.47,7.26,.46,3.97,.82,8.1-.98,12.47-3.4,8.24-7.21,16.05-12.48,23.25-3.74,5.1-9.33,8.69-15.52,9.48-2.56,.33-5.01,1.49-7.54,2.14-1.49,.39-3.04,.52-4.56,.77-.03-.48-.05-.97-.08-1.45Z"/>
  <path class="cls-1" d="M764.85,54.59c-.75-1.82-.96-2.8-1.5-3.54-1.31-1.78,.24-6.45-4.64-4.69-2.14-2.61-4.15-1.7-6.44-.06-.81,.58-2.31,.21-3.56,.28-.15,4.44,6.41,5.23,4.4,9.96-8.6,.96-12.53-1.06-16.73-8.73,.51-.99,1.04-2.04,1.6-3.07,2.69-4.96,7.16-7.24,12.52-7.5,6.1-.29,12.22-.03,18.34-.09,2.64-.02,4.19,1.05,4.51,3.75,.08,.71,.22,1.43,.46,2.1,2.31,6.61,1.91,7.47-4.67,9.89-1.33,.49-2.63,1.04-4.29,1.7Z"/>
  <path class="cls-1" d="M714.76,48.42c2.85-2.15,4.33-3.27,6.17-4.65v-9.47c2.66-2.64,4.99-4.96,7.9-7.85,2.04,0,5.1-.18,8.12,.05,2.84,.22,5.64,.86,8.2,1.28,1.06,3.46,.52,6.02-2.68,6.22-3.64,.23-5.47,3.1-8.03,4.7-4.67,2.93-6.64,7.79-5.6,13.28-5.36,2.04-8.46-2.06-14.09-3.56Z"/>
  <path class="cls-1" d="M1155.86,498.66c-1.71,1.76-2.52,3.33-3.38,3.35-5.93,.17-10.68,3.83-16.25,5.25-7.07,1.81-13.92,.73-20.84,1.1-3.96,.21-5.83-3.96-4.47-7.8,2.32-6.55,7.13-8.76,13.61-9.04,5.24-.23,10.01,1.76,14.99,2.43,5.35,.73,9.97,3.15,16.32,4.7Z"/>
</svg>